<?xml version="1.0" encoding="UTF-8"?>
<svg version="1.1" xmlns="http://www.w3.org/2000/svg" width="300" height="282">
<path d="M0 0 C5.41568786 0.34639086 8.72229817 1.73924287 13.1875 4.75 C31.93833992 16.82859632 53.43554502 19.74352459 75.11230469 15.34692383 C85.44863864 13.10039504 95.59149857 10.32764438 105.51171875 6.63671875 C108.14761289 5.96222778 109.47445256 6.08323219 112 7 C112.99973566 10.80989041 112.93870275 13.25090875 111.81933594 17.01342773 C111.39125641 18.48253601 111.39125641 18.48253601 110.95452881 19.98132324 C110.47430267 21.56644714 110.47430267 21.56644714 109.984375 23.18359375 C109.65826233 24.29553101 109.33214966 25.40746826 108.99615479 26.55310059 C107.19249533 32.68411776 105.33881023 38.80003033 103.4921875 44.91821289 C102.73861586 47.42435122 101.98601135 49.93078056 101.234375 52.4375 C100.67393494 54.30244362 100.67393494 54.30244362 100.10217285 56.20506287 C97.88337594 63.69282544 95.96450718 71.17782561 94.328125 78.8125 C89.17716922 102.13878227 89.17716922 102.13878227 83.45166016 107.29492188 C77.57295103 110.71864407 71.56619927 111.9732896 64.85693359 112.68945312 C62.32679513 112.96447758 59.98475961 113.40231038 57.51953125 114.015625 C32.0268404 120.24661612 5.09880906 116.22841314 -18 104 C-21.48110859 101.83640893 -24.78579919 99.54200016 -28 97 C-27.41436108 92.36317747 -26.55011196 88.00008624 -25.25341797 83.51171875 C-24.89569305 82.26511475 -24.53796814 81.01851074 -24.16940308 79.73413086 C-23.77714165 78.38521209 -23.38473236 77.03633631 -22.9921875 75.6875 C-22.58403974 74.27297216 -22.176261 72.85833779 -21.76882935 71.44360352 C-20.91255199 68.47393541 -20.05320845 65.50517879 -19.19140625 62.53710938 C-18.108086 58.80597363 -17.03016081 55.07330955 -15.95426559 51.34002686 C-12.01863969 37.68598369 -8.05362417 24.04075401 -3.9453125 10.4375 C-3.65784149 9.479646 -3.37037048 8.52179199 -3.07418823 7.53491211 C-2.81267975 6.67647705 -2.55117126 5.81804199 -2.28173828 4.93359375 C-2.05656525 4.19165771 -1.83139221 3.44972168 -1.59939575 2.68530273 C-1 1 -1 1 0 0 Z " fill="#7DBF03" transform="translate(180,43)"/>
<path d="M0 0 C3.80625477 0.33678047 6.38700082 1.64035078 9.5625 3.6875 C31.11698792 16.90547274 54.10802118 20.6289281 79 15 C87.08485967 12.92290631 95.28544059 10.72362809 102.91015625 7.2890625 C106.23572886 5.90165547 107.6360207 5.87867357 111 7 C112.32113517 10.67865771 111.66267367 13.09216469 110.58813477 16.79296875 C110.08619347 18.54891357 110.08619347 18.54891357 109.57411194 20.34033203 C109.19672206 21.62277395 108.81914808 22.9051617 108.44140625 24.1875 C108.05470253 25.52692866 107.66889092 26.86661517 107.28392029 28.20654297 C106.26161549 31.75592781 105.22752748 35.30177331 104.19085693 38.84698486 C103.17064471 42.34266103 102.16070321 45.84129604 101.15039062 49.33984375 C99.95487686 53.47925839 98.7571773 57.61796978 97.54800415 61.75341797 C95.56426926 68.54447475 93.61952465 75.34250285 91.75732422 82.16796875 C91.39859167 83.46997809 91.03954359 84.77190054 90.68016052 86.07373047 C90.01224405 88.50333252 89.3547911 90.93584398 88.70960999 93.37158203 C88.410905 94.45165527 88.11220001 95.53172852 87.80444336 96.64453125 C87.42442421 98.05762573 87.42442421 98.05762573 87.03672791 99.49926758 C85.53574765 103.11984148 83.38752573 105.31080822 79.88793945 107.04907227 C79.13730225 107.30229248 78.38666504 107.5555127 77.61328125 107.81640625 C76.76677002 108.10443115 75.92025879 108.39245605 75.0480957 108.68920898 C74.14534912 108.97739502 73.24260254 109.26558105 72.3125 109.5625 C71.36914795 109.86551025 70.4257959 110.16852051 69.45385742 110.48071289 C40.50696901 119.51210297 10.31256298 118.65326162 -17.04638672 104.97705078 C-27.47717319 99.43643017 -27.47717319 99.43643017 -28.77191162 95.87922668 C-29.08183465 91.96697717 -28.06783126 88.64572851 -26.95800781 84.94018555 C-26.72888702 84.1427594 -26.49976624 83.34533325 -26.26370239 82.52374268 C-25.50435391 79.89145376 -24.72897582 77.26418655 -23.953125 74.63671875 C-23.41990144 72.80240947 -22.88758644 70.96783585 -22.35614014 69.13301086 C-21.23968669 65.28692336 -20.1159441 61.44307195 -18.98632812 57.60083008 C-17.54297619 52.691242 -16.11202419 47.7781584 -14.68584061 42.86355877 C-13.3208494 38.16170546 -11.94976051 33.46163724 -10.578125 28.76171875 C-10.31885475 27.87156256 -10.0595845 26.98140636 -9.79245758 26.06427574 C-9.05148535 23.52452823 -8.30621394 20.98608326 -7.55957031 18.44799805 C-7.2367659 17.33875725 -7.2367659 17.33875725 -6.90744019 16.20710754 C-3.00607106 3.00607106 -3.00607106 3.00607106 0 0 Z " fill="#DBB30A" transform="translate(152,150)"/>
<path d="M0 0 C17.36176452 -0.49056583 32.63496125 4.46300326 47.7421875 12.72265625 C48.43828125 13.0985791 49.134375 13.47450195 49.8515625 13.86181641 C55.89917738 17.29290606 55.89917738 17.29290606 57.0546875 21.16015625 C56.6206164 23.67605451 56.08393512 25.896899 55.34155273 28.32104492 C55.1352977 29.03559341 54.92904266 29.75014191 54.71653748 30.48634338 C54.02920822 32.85453337 53.32136828 35.21606647 52.61328125 37.578125 C52.12788903 39.2352507 51.64378347 40.89275377 51.16090393 42.5506134 C49.8818117 46.92914132 48.58528673 51.30231996 47.28509521 55.67462158 C45.98368006 60.06192639 44.69853364 64.45398431 43.41210938 68.84570312 C41.29177732 76.07637673 39.16286626 83.30444341 37.01686764 90.52754498 C35.87926183 94.35942905 34.7530165 98.194187 33.64358521 102.03433228 C33.30068624 103.21624004 33.30068624 103.21624004 32.95086002 104.42202473 C32.51351301 105.93110219 32.07874974 107.44093151 31.64691067 108.95159435 C30.16652553 114.04831822 30.16652553 114.04831822 29.0546875 115.16015625 C23.9307487 115.16015625 20.78925097 113.56631413 16.4296875 110.91015625 C-3.05137947 99.09536221 -23.81762095 98.04108917 -45.67578125 103.0078125 C-50.81180332 104.32242126 -55.87059156 105.716602 -60.828125 107.6015625 C-61.45654297 107.83963623 -62.08496094 108.07770996 -62.73242188 108.32299805 C-64.47004578 108.99630423 -66.19640298 109.69847987 -67.921875 110.40234375 C-71.42020093 111.27918513 -72.82190861 110.84377545 -75.9453125 109.16015625 C-75.33739616 103.1484913 -74.12049317 97.58637092 -72.46875 91.78125 C-72.22268005 90.90002975 -71.97661011 90.01880951 -71.7230835 89.11088562 C-70.92814879 86.27142066 -70.12459066 83.43448747 -69.3203125 80.59765625 C-68.76916202 78.63856719 -68.21821874 76.67941983 -67.66748047 74.72021484 C-64.64625699 64.00320695 -61.57314343 53.30637657 -58.25634766 42.67651367 C-56.86335034 38.21209978 -55.53637157 33.74025074 -54.296875 29.23046875 C-54.0272998 28.2544873 -53.75772461 27.27850586 -53.47998047 26.27294922 C-52.97286549 24.42278425 -52.47391156 22.57035435 -51.98486328 20.71533203 C-51.76040527 19.89790527 -51.53594727 19.08047852 -51.3046875 18.23828125 C-51.11358398 17.5205957 -50.92248047 16.80291016 -50.72558594 16.06347656 C-49.47444336 13.01156556 -47.87037028 11.57986042 -44.88330078 10.22460938 C-44.10196777 9.96615234 -43.32063477 9.70769531 -42.515625 9.44140625 C-41.64397705 9.15023926 -40.7723291 8.85907227 -39.87426758 8.55908203 C-38.9489624 8.26243652 -38.02365723 7.96579102 -37.0703125 7.66015625 C-35.65045044 7.19778564 -35.65045044 7.19778564 -34.2019043 6.72607422 C-22.86957491 3.09331009 -11.90140301 0.64715852 0 0 Z " fill="#EB6C20" transform="translate(115.9453125,14.83984375)"/>
<path d="M0 0 C-1.35485655 7.53973586 -3.28139654 14.82089247 -5.44921875 22.1640625 C-5.78492386 23.31377533 -6.12062897 24.46348816 -6.46650696 25.64804077 C-7.53621046 29.30820012 -8.61172018 32.96662254 -9.6875 36.625 C-10.39036466 39.02592732 -11.09284166 41.42696817 -11.79492188 43.828125 C-13.18157829 48.56877203 -14.57097131 53.30860387 -15.96240234 58.04785156 C-17.31802849 62.66777112 -18.66724061 67.28948415 -20.01025391 71.91308594 C-20.32815384 73.00688568 -20.64605377 74.10068542 -20.97358704 75.22763062 C-21.56943369 77.27912801 -22.16437366 79.33088906 -22.75822449 81.38296509 C-26.59853568 94.59853568 -26.59853568 94.59853568 -29 97 C-33.49724746 96.71546413 -36.66469091 94.57038663 -40.4375 92.25 C-61.521047 79.83941335 -81.8137053 79.42959339 -105.0546875 85.21484375 C-110.91649639 86.76312396 -116.66951413 88.46432677 -122.33203125 90.63671875 C-125.59630806 91.84995901 -127.59045188 92.50140414 -131 92 C-131.66 91.34 -132.32 90.68 -133 90 C-132.60682673 81.28094266 -128.86728423 72.18259088 -126.4375 63.8125 C-125.99160613 62.26515248 -125.54605489 60.71770618 -125.10083008 59.17016602 C-123.73984757 54.44504349 -122.37105263 49.72220915 -121 45 C-120.78802979 44.26978638 -120.57605957 43.53957275 -120.35766602 42.78723145 C-119.74386382 40.67319697 -119.12979144 38.55924118 -118.515625 36.4453125 C-118.31938538 35.76962219 -118.12314575 35.09393188 -117.92095947 34.39776611 C-116.96910368 31.12164127 -116.01486313 27.84624846 -115.05566406 24.57226562 C-113.46665739 19.13280882 -111.89813438 13.69475137 -110.46875 8.2109375 C-110.24678955 7.36732666 -110.0248291 6.52371582 -109.79614258 5.65454102 C-109.40862757 4.1633932 -109.03221553 2.66928342 -108.6706543 1.17163086 C-107.59110834 -2.98034799 -106.49832082 -5.46200254 -103 -8 C-100.25205149 -9.2455428 -97.44119653 -10.16736503 -94.5625 -11.0625 C-93.76279785 -11.31926514 -92.9630957 -11.57603027 -92.13916016 -11.84057617 C-59.21498106 -22.2146246 -28.35309691 -20.40484824 0 0 Z " fill="#647EF3" transform="translate(142,144)"/>
<path d="M0 0 C2.625 0.375 2.625 0.375 5 1 C5.04125 1.61875 5.0825 2.2375 5.125 2.875 C5.41375 3.57625 5.7025 4.2775 6 5 C7.97746603 5.73080266 9.98072489 6.39421747 12 7 C13.875 8.625 13.875 8.625 15 10 C14.2575 9.814375 13.515 9.62875 12.75 9.4375 C9.9544582 8.99275471 8.64700205 9.17281186 6 10 C4.33480481 10.34060811 2.66842534 10.67558396 1 11 C0.34 13.31 -0.32 15.62 -1 18 C-1.99 18 -2.98 18 -4 18 C-6.05111897 24.92508263 -8.07681007 31.85715435 -10.07617188 38.79736328 C-10.6544365 40.80203436 -11.23594607 42.80577545 -11.82226562 44.80810547 C-14.35478762 53.50015285 -16.65780072 61.49610226 -16.078125 70.65234375 C-16.00001048 72.9996851 -16.39756841 74.74931557 -17 77 C-16.62092718 79.18703385 -16.62092718 79.18703385 -16 81 C-16.99 81.495 -16.99 81.495 -18 82 C-17.608125 83.216875 -17.21625 84.43375 -16.8125 85.6875 C-15.96428014 88.99263255 -15.83780516 89.66086533 -17.375 92.875 C-18.179375 93.926875 -18.179375 93.926875 -19 95 C-19 95.66 -19 96.32 -19 97 C-15.12315913 98.19287411 -12.08378077 99 -8 99 C-8 100.32 -8 101.64 -8 103 C-7.071875 103.0928125 -7.071875 103.0928125 -6.125 103.1875 C-5.42375 103.455625 -4.7225 103.72375 -4 104 C-3.566875 105.2375 -3.566875 105.2375 -3.125 106.5 C-2.568125 107.7375 -2.568125 107.7375 -2 109 C0.76053014 109.61462226 0.76053014 109.61462226 4 110 C5.03253906 110.24878906 6.06507813 110.49757813 7.12890625 110.75390625 C14.72820241 112.54350159 21.99927117 113.31877973 29.8125 113.375 C30.67109619 113.38861572 31.52969238 113.40223145 32.41430664 113.41625977 C38.72202989 113.37204817 44.05325243 112.01022995 50 110 C51.66462923 109.51380252 53.33108863 109.03378898 55 108.5625 C60.9723037 106.77551149 66.71102806 104.43992148 72.41796875 101.94140625 C75.26517034 100.90331914 78.00411648 100.41803026 81 100 C81.1451001 99.39865234 81.2902002 98.79730469 81.43969727 98.17773438 C84.95825229 83.67037702 88.84154305 69.31852275 93.10449219 55.01318359 C94.60876893 49.95162864 96.08513261 44.88196201 97.5625 39.8125 C97.84867187 38.83216797 98.13484375 37.85183594 98.4296875 36.84179688 C101.32679307 26.90604162 104.16910609 16.95479178 107 7 C108.32 7 109.64 7 111 7 C112.32113517 10.67865771 111.66267367 13.09216469 110.58813477 16.79296875 C110.08619347 18.54891357 110.08619347 18.54891357 109.57411194 20.34033203 C109.19672206 21.62277395 108.81914808 22.9051617 108.44140625 24.1875 C108.05470253 25.52692866 107.66889092 26.86661517 107.28392029 28.20654297 C106.26161549 31.75592781 105.22752748 35.30177331 104.19085693 38.84698486 C103.17064471 42.34266103 102.16070321 45.84129604 101.15039062 49.33984375 C99.95487686 53.47925839 98.7571773 57.61796978 97.54800415 61.75341797 C95.56426926 68.54447475 93.61952465 75.34250285 91.75732422 82.16796875 C91.39859167 83.46997809 91.03954359 84.77190054 90.68016052 86.07373047 C90.01224405 88.50333252 89.3547911 90.93584398 88.70960999 93.37158203 C88.410905 94.45165527 88.11220001 95.53172852 87.80444336 96.64453125 C87.42442421 98.05762573 87.42442421 98.05762573 87.03672791 99.49926758 C85.53574765 103.11984148 83.38752573 105.31080822 79.88793945 107.04907227 C79.13730225 107.30229248 78.38666504 107.5555127 77.61328125 107.81640625 C76.76677002 108.10443115 75.92025879 108.39245605 75.0480957 108.68920898 C74.14534912 108.97739502 73.24260254 109.26558105 72.3125 109.5625 C71.36914795 109.86551025 70.4257959 110.16852051 69.45385742 110.48071289 C40.50696901 119.51210297 10.31256298 118.65326162 -17.04638672 104.97705078 C-27.47717319 99.43643017 -27.47717319 99.43643017 -28.77191162 95.87922668 C-29.08183465 91.96697717 -28.06783126 88.64572851 -26.95800781 84.94018555 C-26.72888702 84.1427594 -26.49976624 83.34533325 -26.26370239 82.52374268 C-25.50435391 79.89145376 -24.72897582 77.26418655 -23.953125 74.63671875 C-23.41990144 72.80240947 -22.88758644 70.96783585 -22.35614014 69.13301086 C-21.23968669 65.28692336 -20.1159441 61.44307195 -18.98632812 57.60083008 C-17.54297619 52.691242 -16.11202419 47.7781584 -14.68584061 42.86355877 C-13.3208494 38.16170546 -11.94976051 33.46163724 -10.578125 28.76171875 C-10.31885475 27.87156256 -10.0595845 26.98140636 -9.79245758 26.06427574 C-9.05148535 23.52452823 -8.30621394 20.98608326 -7.55957031 18.44799805 C-7.2367659 17.33875725 -7.2367659 17.33875725 -6.90744019 16.20710754 C-3.00607106 3.00607106 -3.00607106 3.00607106 0 0 Z " fill="#725E06" transform="translate(152,150)"/>
<path d="M0 0 C1.32 0 2.64 0 4 0 C3.41510851 4.63238902 2.55218569 8.98933435 1.25341797 13.47241211 C0.89569305 14.71578842 0.53796814 15.95916473 0.16940308 17.24021912 C-0.22290031 18.58595701 -0.61530843 19.93166438 -1.0078125 21.27734375 C-1.41600075 22.68946408 -1.82377861 24.1017031 -2.23117065 25.51405334 C-3.30604752 29.23619373 -4.38659298 32.9566652 -5.46832275 36.67681885 C-6.75403659 41.10302527 -8.03322407 45.5311257 -9.31107807 49.95960712 C-10.35136466 53.56158465 -11.3988366 57.16115651 -12.46220398 60.75639343 C-14.37520688 67.24279321 -16.2083589 73.71313925 -17.77661133 80.29418945 C-21.48964856 95.47901433 -21.48964856 95.47901433 -25.53125 99.54907227 C-28.55975889 101.08389516 -31.09370307 101.76274463 -34.4375 102.3125 C-35.50500488 102.57297119 -36.57250977 102.83344238 -37.67236328 103.10180664 C-40.77018565 103.83409989 -43.86976907 104.4255401 -47 105 C-48.50097548 105.34706411 -50.00003855 105.70261738 -51.49609375 106.0703125 C-78.05818892 112.0086661 -106.89631854 108.49491206 -130.23046875 93.9921875 C-132.5390779 92.38365024 -134.79346711 90.74507048 -137 89 C-136.67 86.69 -136.34 84.38 -136 82 C-135.34 82 -134.68 82 -134 82 C-133.67 81.01 -133.34 80.02 -133 79 C-133.33 81.31 -133.66 83.62 -134 86 C-133.34 86 -132.68 86 -132 86 C-131.90847656 85.10152344 -131.81695312 84.20304687 -131.72265625 83.27734375 C-130.90572254 77.55880779 -129.0919713 72.08286462 -127.4375 66.5625 C-127.10814453 65.44939453 -126.77878906 64.33628906 -126.43945312 63.18945312 C-125.6306592 60.45830842 -124.81739587 57.72858014 -124 55 C-123.34 55 -122.68 55 -122 55 C-121.08702692 59.97063121 -121.08702692 64.02936879 -122 69 C-122.66 69 -123.32 69 -124 69 C-124.28875 69.94875 -124.5775 70.8975 -124.875 71.875 C-126 75 -126 75 -128 77 C-128.24315656 79.66949409 -128.24315656 79.66949409 -128.125 82.625 C-128.10695312 83.62789063 -128.08890625 84.63078125 -128.0703125 85.6640625 C-128.04710937 86.43492187 -128.02390625 87.20578125 -128 88 C-127.01 88.33 -126.02 88.66 -125 89 C-125 89.66 -125 90.32 -125 91 C-121.12315913 92.19287411 -118.08378077 93 -114 93 C-113.505 93.99 -113.505 93.99 -113 95 C-111.7625 95.4640625 -111.7625 95.4640625 -110.5 95.9375 C-109.675 96.288125 -108.85 96.63875 -108 97 C-107.67 97.99 -107.34 98.98 -107 100 C-106.34 100 -105.68 100 -105 100 C-105 100.66 -105 101.32 -105 102 C-88.99019655 105.7098579 -73.16514101 106.44726501 -57 103 C-56.3699707 102.86577637 -55.73994141 102.73155273 -55.09082031 102.59326172 C-46.77882755 100.77940733 -39.0384112 98.47241488 -31.2578125 94.953125 C-29 94 -29 94 -27 94 C-26.75121094 92.82824219 -26.50242187 91.65648437 -26.24609375 90.44921875 C-24.85604275 84.20315845 -23.23418118 78.01786745 -21.59594727 71.83325195 C-21.239106 70.48150132 -20.88528342 69.12895033 -20.53442383 67.77563477 C-20.02032108 65.79266702 -19.49748337 63.81218413 -18.97265625 61.83203125 C-18.66593994 60.66389893 -18.35922363 59.4957666 -18.04321289 58.29223633 C-16.99237286 54.9759298 -15.55719406 52.10276923 -14 49 C-13.33852657 46.61996965 -13.33852657 46.61996965 -12.9921875 44.26953125 C-12.02988433 38.96495901 -10.6389211 33.85830042 -9.125 28.6875 C-8.86106445 27.77613281 -8.59712891 26.86476563 -8.32519531 25.92578125 C-2.66081926 6.44198346 -2.66081926 6.44198346 0 0 Z " fill="#536925" transform="translate(289,51)"/>
<path d="M0 0 C1.65 0.33 3.3 0.66 5 1 C3.64514345 8.53973586 1.71860346 15.82089247 -0.44921875 23.1640625 C-0.78492386 24.31377533 -1.12062897 25.46348816 -1.46650696 26.64804077 C-2.53621046 30.30820012 -3.61172018 33.96662254 -4.6875 37.625 C-5.39036466 40.02592732 -6.09284166 42.42696817 -6.79492188 44.828125 C-8.18157829 49.56877203 -9.57097131 54.30860387 -10.96240234 59.04785156 C-12.31802849 63.66777112 -13.66724061 68.28948415 -15.01025391 72.91308594 C-15.32815384 74.00688568 -15.64605377 75.10068542 -15.97358704 76.22763062 C-16.56943369 78.27912801 -17.16437366 80.33088906 -17.75822449 82.38296509 C-21.59853568 95.59853568 -21.59853568 95.59853568 -24 98 C-28.49724746 97.71546413 -31.66469091 95.57038663 -35.4375 93.25 C-56.521047 80.83941335 -76.8137053 80.42959339 -100.0546875 86.21484375 C-105.91597945 87.76298742 -111.66630392 89.46141921 -117.32421875 91.64453125 C-120.58665735 92.84757715 -122.59281933 93.31942319 -126 93 C-126.33 92.01 -126.66 91.02 -127 90 C-100.59328849 79.92876402 -73.33953766 73.33606984 -46 84 C-44.38931641 84.60521484 -44.38931641 84.60521484 -42.74609375 85.22265625 C-40.47898261 86.10238366 -38.2351886 87.04206203 -36 88 C-39.63 86.02 -43.26 84.04 -47 82 C-47 81.67 -47 81.34 -47 81 C-42.46229996 80.69061136 -40.43832528 81.03592649 -37 84 C-35.515 84.495 -35.515 84.495 -34 85 C-33.67 84.34 -33.34 83.68 -33 83 C-32.505 86.465 -32.505 86.465 -32 90 C-30.53774984 90.09245003 -30.53774984 90.09245003 -28 88 C-28 88.99 -28 89.98 -28 91 C-26.35 90.34 -24.7 89.68 -23 89 C-23.350625 88.0925 -23.70125 87.185 -24.0625 86.25 C-25.3842984 81.66776556 -24.19548908 79.12109588 -22.0625 75 C-21.55396484 74.01 -21.55396484 74.01 -21.03515625 73 C-20.52275391 72.01 -20.52275391 72.01 -20 71 C-19.33148341 69.66759323 -18.66428253 68.33452274 -18 67 C-18.33 67 -18.66 67 -19 67 C-19.29048194 63.70787134 -19.05355775 62.10265235 -17.5 59.125 C-15.76188889 55.5039352 -15.76198284 52.96695268 -16 49 C-14.515 49.495 -14.515 49.495 -13 50 C-12.67 49.01 -12.34 48.02 -12 47 C-11.34 47 -10.68 47 -10 47 C-10.02320312 46.31292969 -10.04640625 45.62585938 -10.0703125 44.91796875 C-10.08835937 44.01691406 -10.10640625 43.11585938 -10.125 42.1875 C-10.14820312 41.29417969 -10.17140625 40.40085938 -10.1953125 39.48046875 C-10 37 -10 37 -8 34 C-7.79560415 31.94946967 -7.79560415 31.94946967 -7.9375 29.75 C-8.03707217 25.6940937 -7.68010994 21.9956459 -7 18 C-6.01 18 -5.02 18 -4 18 C-2.49264892 13.2769666 -1.66282177 8.85917241 -1.24609375 3.91796875 C-1 2 -1 2 0 0 Z " fill="#151DC0" transform="translate(137,143)"/>
<path d="M0 0 C2.625 0.375 2.625 0.375 5 1 C5.04125 1.61875 5.0825 2.2375 5.125 2.875 C5.41375 3.57625 5.7025 4.2775 6 5 C7.97746603 5.73080266 9.98072489 6.39421747 12 7 C13.875 8.625 13.875 8.625 15 10 C14.2575 9.814375 13.515 9.62875 12.75 9.4375 C9.9544582 8.99275471 8.64700205 9.17281186 6 10 C4.33480481 10.34060811 2.66842534 10.67558396 1 11 C0.34 13.31 -0.32 15.62 -1 18 C-1.99 18 -2.98 18 -4 18 C-6.05111897 24.92508263 -8.07681007 31.85715435 -10.07617188 38.79736328 C-10.6544365 40.80203436 -11.23594607 42.80577545 -11.82226562 44.80810547 C-14.35478762 53.50015285 -16.65780072 61.49610226 -16.078125 70.65234375 C-16.00001048 72.9996851 -16.39756841 74.74931557 -17 77 C-16.62092718 79.18703385 -16.62092718 79.18703385 -16 81 C-16.99 81.495 -16.99 81.495 -18 82 C-17.608125 83.216875 -17.21625 84.43375 -16.8125 85.6875 C-15.96428014 88.99263255 -15.83780516 89.66086533 -17.375 92.875 C-18.179375 93.926875 -18.179375 93.926875 -19 95 C-19 95.66 -19 96.32 -19 97 C-15.12315913 98.19287411 -12.08378077 99 -8 99 C-8 100.32 -8 101.64 -8 103 C-7.38125 103.0825 -6.7625 103.165 -6.125 103.25 C-4 104 -4 104 -2.8671875 106.046875 C-2.58101562 106.69140625 -2.29484375 107.3359375 -2 108 C-11.14333557 105.55089226 -18.8912129 100.74587908 -27 96 C-27.495 96.99 -27.495 96.99 -28 98 C-29.48516769 93.27618317 -28.33025448 89.5219224 -26.95800781 84.94018555 C-26.72888702 84.1427594 -26.49976624 83.34533325 -26.26370239 82.52374268 C-25.50435391 79.89145376 -24.72897582 77.26418655 -23.953125 74.63671875 C-23.41990144 72.80240947 -22.88758644 70.96783585 -22.35614014 69.13301086 C-21.23968669 65.28692336 -20.1159441 61.44307195 -18.98632812 57.60083008 C-17.54297619 52.691242 -16.11202419 47.7781584 -14.68584061 42.86355877 C-13.3208494 38.16170546 -11.94976051 33.46163724 -10.578125 28.76171875 C-10.31885475 27.87156256 -10.0595845 26.98140636 -9.79245758 26.06427574 C-9.05148535 23.52452823 -8.30621394 20.98608326 -7.55957031 18.44799805 C-7.2367659 17.33875725 -7.2367659 17.33875725 -6.90744019 16.20710754 C-3.00607106 3.00607106 -3.00607106 3.00607106 0 0 Z " fill="#949739" transform="translate(152,150)"/>
<path d="M0 0 C1.32 0 2.64 0 4 0 C3.40594551 4.74708981 2.49120492 9.19714805 1.15820312 13.78979492 C0.88241676 14.74729393 0.88241676 14.74729393 0.60105896 15.72413635 C-0.00113797 17.81088406 -0.60991125 19.89565023 -1.21875 21.98046875 C-1.64134165 23.44049296 -2.06349444 24.90064426 -2.48522949 26.36091614 C-3.59206593 30.18934033 -4.70440261 34.01614387 -5.8180542 37.84259033 C-7.17122141 42.49553324 -8.51827 47.15025029 -9.86582184 51.80482197 C-10.91394911 55.42493758 -11.96310796 59.04474248 -13.01550293 62.66362 C-13.20873642 63.32901794 -13.40196991 63.99441589 -13.60105896 64.67997742 C-14.12196474 66.47360926 -14.643538 68.26704722 -15.16516113 70.06047058 C-15.82011265 72.36660333 -16.43937637 74.66960242 -17 77 C-17.66 77 -18.32 77 -19 77 C-19.33 78.98 -19.66 80.96 -20 83 C-20.33 83 -20.66 83 -21 83 C-21.33 85.31 -21.66 87.62 -22 90 C-22.66 90 -23.32 90 -24 90 C-24 91.98 -24 93.96 -24 96 C-25.0625 94.1875 -25.0625 94.1875 -26 92 C-25.67 91.01 -25.34 90.02 -25 89 C-24.34 89 -23.68 89 -23 89 C-23.33 88.34 -23.66 87.68 -24 87 C-23.92642049 79.69588736 -22.09156137 72.73369109 -20.125 65.75 C-19.86847656 64.79609375 -19.61195313 63.8421875 -19.34765625 62.859375 C-18.28496648 59.0144673 -17.26171278 55.50780091 -15.4296875 51.953125 C-13.77490888 48.53505769 -13.19277419 45.37523955 -12.51855469 41.65869141 C-11.66036099 37.25863053 -10.38379809 32.98692728 -9.125 28.6875 C-8.86106445 27.77613281 -8.59712891 26.86476563 -8.32519531 25.92578125 C-2.66081926 6.44198346 -2.66081926 6.44198346 0 0 Z " fill="#3E570F" transform="translate(289,51)"/>
<path d="M0 0 C6.65347895 0.13861414 10.75599724 3.11158979 16 7 C15.34 7.33 14.68 7.66 14 8 C11.6171875 6.78515625 11.6171875 6.78515625 8.875 5.0625 C7.50988281 4.21365234 7.50988281 4.21365234 6.1171875 3.34765625 C5.41851562 2.90292969 4.71984375 2.45820312 4 2 C3.54560547 3.4540625 3.54560547 3.4540625 3.08203125 4.9375 C2.88198486 5.57751953 2.68193848 6.21753906 2.47583008 6.87695312 C2.02875697 8.30785033 1.58198596 9.73884196 1.13549805 11.16992188 C-0.02771645 14.89676509 -1.19544296 18.62204417 -2.375 22.34375 C-2.59518799 23.04113281 -2.81537598 23.73851563 -3.04223633 24.45703125 C-3.655571 26.39890963 -4.27108519 28.34009922 -4.88671875 30.28125 C-5.82870659 33.4278199 -6.65967075 36.57726408 -7.43920898 39.76708984 C-8.60005217 44.38923691 -9.90328602 48.97341815 -11.1875 53.5625 C-11.48994629 54.64426514 -11.79239258 55.72603027 -12.10400391 56.84057617 C-15.0266381 67.22052479 -18.15509835 77.53386216 -21.35498047 87.83129883 C-21.9632285 89.87636593 -22.50017757 91.92606147 -23 94 C-23.66 94 -24.32 94 -25 94 C-26.90433537 86.01095837 -24.49486091 79.3766635 -22.15234375 71.703125 C-21.73796597 70.30555134 -21.32495217 68.90757262 -20.91322327 67.50921631 C-19.8260098 63.83028251 -18.72037995 60.1571394 -17.61071777 56.48492432 C-16.50598986 52.81748804 -15.41875412 49.14488272 -14.33007812 45.47265625 C-12.46421179 39.18725909 -10.58253108 32.90676583 -8.69139671 26.62892914 C-7.47502907 22.58845005 -6.27020761 18.54474627 -5.07470703 14.49804688 C-4.79397842 13.55072693 -4.51324982 12.60340698 -4.22401428 11.62738037 C-3.71872599 9.92093267 -3.21566494 8.21382314 -2.71531677 6.50592041 C-1.11224523 1.11224523 -1.11224523 1.11224523 0 0 Z " fill="#739332" transform="translate(180,43)"/>
<path d="M0 0 C-0.66 0 -1.32 0 -2 0 C-2.12761719 0.845625 -2.25523437 1.69125 -2.38671875 2.5625 C-3.01956978 6.1096905 -3.87182018 9.52210807 -4.8125 13 C-4.98555664 13.64138916 -5.15861328 14.28277832 -5.33691406 14.94360352 C-7.15592994 21.64856158 -9.06702257 28.32711514 -11 35 C-11.66 35 -12.32 35 -13 35 C-12 27 -12 27 -11 19 C-10.34 19 -9.68 19 -9 19 C-8.814375 17.700625 -8.814375 17.700625 -8.625 16.375 C-8.01941879 13.10486147 -7.11693965 10.12743101 -6 7 C-11.65020618 7.60108576 -16.66164461 9.07528683 -22 11 C-22.495 10.505 -22.495 10.505 -23 10 C-23.66386719 10.20496094 -24.32773438 10.40992188 -25.01171875 10.62109375 C-25.89472656 10.89050781 -26.77773437 11.15992188 -27.6875 11.4375 C-28.55761719 11.70433594 -29.42773438 11.97117188 -30.32421875 12.24609375 C-33 13 -33 13 -35.5625 13.5 C-37.94081967 13.98786045 -40.05370043 14.68195102 -42.3125 15.5625 C-43.529375 16.036875 -44.74625 16.51125 -46 17 C-46 16.34 -46 15.68 -46 15 C-51.39197997 13.74773594 -56.79636723 13.64033374 -62.30859375 13.37890625 C-65.8576151 13.01461517 -68.65456787 12.18314063 -72 11 C-74.83193816 10.51715263 -77.66311322 10.12817062 -80.51171875 9.7578125 C-83.54293081 8.83464901 -84.38767402 7.66384292 -86 5 C-83.24991865 5.64548853 -80.49993244 6.29137766 -77.75 6.9375 C-76.97269531 7.11990234 -76.19539062 7.30230469 -75.39453125 7.49023438 C-74.64042969 7.66748047 -73.88632813 7.84472656 -73.109375 8.02734375 C-72.41811523 8.18968506 -71.72685547 8.35202637 -71.01464844 8.51928711 C-69.67326557 8.8393529 -68.33730513 9.18307565 -67.00805664 9.55029297 C-47.86718338 13.83691772 -23.59630916 8.31396628 -6.09375 0.24609375 C-3 -1 -3 -1 0 0 Z " fill="#F3CB16" transform="translate(261,157)"/>
<path d="M0 0 C-3.40165862 1.13388621 -3.89162319 0.90898359 -7.0703125 -0.36328125 C-7.87525146 -0.67281738 -8.68019043 -0.98235352 -9.50952148 -1.30126953 C-10.37262939 -1.63497559 -11.2357373 -1.96868164 -12.125 -2.3125 C-36.16499046 -11.0460729 -59.73295721 -7.4581804 -83.32421875 1.64453125 C-86.58665735 2.84757715 -88.59281933 3.31942319 -92 3 C-92.33 2.01 -92.66 1.02 -93 0 C-61.44299831 -12.0355013 -30.67412353 -17.19878603 0 0 Z " fill="#2F35B3" transform="translate(103,233)"/>
<path d="M0 0 C4.40072136 1.65133452 8.51007607 3.73919277 12.6875 5.875 C38.48459228 18.83030382 64.78983469 20.44731328 92.39453125 11.65625 C98.12480524 10.04959034 98.12480524 10.04959034 103 7 C104.99958364 6.95919217 107.00045254 6.95745644 109 7 C109 7.99 109 8.98 109 10 C76.2091456 21.76723784 44.52012463 24.86807657 12 10 C7.83341406 7.97004513 3.64069018 5.88399771 0 3 C0 2.01 0 1.02 0 0 Z " fill="#505E1C" transform="translate(125,246)"/>
<path d="M0 0 C3.375 0.3125 3.375 0.3125 7 1 C9.53830345 4.80745518 9.50849572 7.60029299 9 12 C8.03967256 16.33414862 6.78007117 20.56327663 5.5 24.8125 C5.14486328 26.02196289 4.78972656 27.23142578 4.42382812 28.47753906 C3.48458132 31.66916243 2.53613902 34.85774405 1.58300781 38.04522705 C0.6099583 41.30777488 -0.3507252 44.5739582 -1.3125 47.83984375 C-3.1970328 54.22995002 -5.09378645 60.61632986 -7 67 C-7.66 67 -8.32 67 -9 67 C-11 65 -11 65 -12 62 C-11.01 62 -10.02 62 -9 62 C-9.061875 61.34 -9.12375 60.68 -9.1875 60 C-9.0118687 57.1898992 -8.54426968 55.61679345 -7.5 53.0625 C-6.36204954 50.27268598 -6.00168513 48.91405815 -6.0625 45.8125 C-6 43 -6 43 -3.9375 40.4375 C-3.298125 39.633125 -2.65875 38.82875 -2 38 C-2.27802838 35.60611077 -2.27802838 35.60611077 -3 33 C-2.90546789 30.23230977 -2.50290166 27.74309996 -2 25 C-1.34 24.67 -0.68 24.34 0 24 C0 21.69 0 19.38 0 17 C0.99 17 1.98 17 3 17 C2.34 15.02 1.68 13.04 1 11 C2.32 11 3.64 11 5 11 C4.67 10.01 4.34 9.02 4 8 C3.96045766 5.66700175 3.95598268 3.33291811 4 1 C2.68 0.67 1.36 0.34 0 0 Z " fill="#8D3421" transform="translate(162,31)"/>
<path d="M0 0 C0.99 0.66 1.98 1.32 3 2 C1.40234375 2.7265625 1.40234375 2.7265625 -1 3 C-3.27641143 1.87811797 -5.30618633 0.726077 -7.4375 -0.625 C-27.48811319 -12.64119416 -48.15022591 -14.28314238 -70.73046875 -9.15234375 C-78.39116958 -7.19152188 -85.72632513 -4.74547074 -93.07421875 -1.85546875 C-95.98576703 -1.00416158 -97.22911609 -0.90108497 -100 -2 C-100 -2.66 -100 -3.32 -100 -4 C-98.12616097 -4.79441072 -96.25087114 -5.58539974 -94.375 -6.375 C-93.33085938 -6.81585938 -92.28671875 -7.25671875 -91.2109375 -7.7109375 C-85.65050412 -9.94322827 -80.26336784 -11.43556788 -74.375 -12.5625 C-69.73570147 -13.40872157 -69.73570147 -13.40872157 -65.16015625 -14.52783203 C-41.68181171 -19.65973962 -19.67220934 -12.19955031 0 0 Z " fill="#9A3713" transform="translate(141,127)"/>
<path d="M0 0 C0.66 0 1.32 0 2 0 C2.91297308 4.97063121 2.91297308 9.02936879 2 14 C1.34 14 0.68 14 0 14 C-0.28875 14.94875 -0.5775 15.8975 -0.875 16.875 C-2 20 -2 20 -4 22 C-4.24315656 24.66949409 -4.24315656 24.66949409 -4.125 27.625 C-4.09792969 29.12933594 -4.09792969 29.12933594 -4.0703125 30.6640625 C-4.04710937 31.43492187 -4.02390625 32.20578125 -4 33 C-3.01 33.33 -2.02 33.66 -1 34 C-1 34.66 -1 35.32 -1 36 C2.87684087 37.19287411 5.91621923 38 10 38 C10.33 38.66 10.66 39.32 11 40 C11.825 40.309375 12.65 40.61875 13.5 40.9375 C14.7375 41.4634375 14.7375 41.4634375 16 42 C16.33 42.99 16.66 43.98 17 45 C17.66 45 18.32 45 19 45 C19 45.66 19 46.32 19 47 C13.21360117 45.43482655 7.97453659 43.71696191 2.7890625 40.671875 C0.99254413 39.78646047 0.99254413 39.78646047 -0.8984375 40.60546875 C-3 41 -3 41 -5.578125 39.56640625 C-6.45984375 38.90511719 -7.3415625 38.24382812 -8.25 37.5625 C-9.14203125 36.90378906 -10.0340625 36.24507812 -10.953125 35.56640625 C-11.62859375 35.04949219 -12.3040625 34.53257812 -13 34 C-12.67 31.69 -12.34 29.38 -12 27 C-11.34 27 -10.68 27 -10 27 C-9.67 26.01 -9.34 25.02 -9 24 C-9.33 26.31 -9.66 28.62 -10 31 C-9.34 31 -8.68 31 -8 31 C-7.86271484 29.65228516 -7.86271484 29.65228516 -7.72265625 28.27734375 C-6.90572254 22.55880779 -5.0919713 17.08286462 -3.4375 11.5625 C-3.10814453 10.44939453 -2.77878906 9.33628906 -2.43945312 8.18945312 C-1.6306592 5.45830842 -0.81739587 2.72858014 0 0 Z " fill="#617C27" transform="translate(165,106)"/>
<path d="M0 0 C0.33 0 0.66 0 1 0 C0.96519531 0.93972656 0.96519531 0.93972656 0.9296875 1.8984375 C0.91164063 2.71570313 0.89359375 3.53296875 0.875 4.375 C0.85179687 5.18710938 0.82859375 5.99921875 0.8046875 6.8359375 C0.78629949 9.21342243 0.78629949 9.21342243 3 11 C2.34 11 1.68 11 1 11 C1.061875 12.19625 1.12375 13.3925 1.1875 14.625 C1.20943937 18.73497595 0.13130434 21.4478261 -2 25 C-2.66 25 -3.32 25 -4 25 C-3.05270463 27.15811388 -3.05270463 27.15811388 -1 29 C-1.99 29.66 -2.98 30.32 -4 31 C-5.91010398 35.41339924 -5.91010398 35.41339924 -5 40 C-6.14453125 41.82421875 -6.14453125 41.82421875 -7.8125 43.6875 C-8.35519531 44.31011719 -8.89789063 44.93273437 -9.45703125 45.57421875 C-11 47 -11 47 -13 47 C-12.45067194 40.89956731 -11.45609878 35.32780113 -9.71484375 29.46484375 C-9.49429825 28.70071671 -9.27375275 27.93658966 -9.04652405 27.14930725 C-8.3503999 24.74330824 -7.64415711 22.34042388 -6.9375 19.9375 C-6.45960981 18.29251413 -5.98239024 16.64733328 -5.50585938 15.00195312 C-4.34496841 10.99900957 -3.1750021 6.9988231 -2 3 C-1.34 3 -0.68 3 0 3 C0 2.01 0 1.02 0 0 Z " fill="#496CEC" transform="translate(29,165)"/>
<path d="M0 0 C0 0.33 0 0.66 0 1 C-1.27875 1.226875 -2.5575 1.45375 -3.875 1.6875 C-7.54891083 2.49116799 -10.55830915 3.67285038 -13.875 5.4375 C-18.27707849 7.76480041 -22.53320053 9.129012 -27.359375 10.30859375 C-29.78203774 10.94293 -31.98998475 11.76279485 -34.3125 12.6875 C-39.41918479 14.46333813 -44.42391444 14.17053227 -49.7734375 14.02734375 C-53.10643018 13.89763863 -53.10643018 13.89763863 -56.75 14.6875 C-61.46352035 15.14072311 -65.67442181 13.88104646 -70 12 C-70.33 11.34 -70.66 10.68 -71 10 C-70.35675781 10.01571045 -69.71351563 10.0314209 -69.05078125 10.04760742 C-55.95386847 10.3243521 -43.77036663 10.19599165 -31 7 C-30.36271973 6.8448291 -29.72543945 6.6896582 -29.06884766 6.52978516 C-21.38326232 4.64724852 -13.90419936 2.3958916 -6.48828125 -0.36328125 C-3.85238711 -1.03777222 -2.52554744 -0.91676781 0 0 Z " fill="#A1CD4E" transform="translate(292,50)"/>
<path d="M0 0 C0.66 0 1.32 0 2 0 C1.814375 1.2375 1.62875 2.475 1.4375 3.75 C1.05288777 6.76279577 0.9125406 9.10010827 2 12 C1.01 12.495 1.01 12.495 0 13 C0.391875 14.216875 0.78375 15.43375 1.1875 16.6875 C2.03571986 19.99263255 2.16219484 20.66086533 0.625 23.875 C0.08875 24.57625 -0.4475 25.2775 -1 26 C-1 26.66 -1 27.32 -1 28 C2.87684087 29.19287411 5.91621923 30 10 30 C10 31.32 10 32.64 10 34 C10.61875 34.0825 11.2375 34.165 11.875 34.25 C14 35 14 35 15.1328125 37.046875 C15.41898438 37.69140625 15.70515625 38.3359375 16 39 C7.52556968 36.66222612 0.4852274 32.4826184 -7 28 C-7 24.75832936 -6.3543374 22.3536512 -5.46875 19.23828125 C-5.15292969 18.12001953 -4.83710938 17.00175781 -4.51171875 15.84960938 C-4.01091797 14.09874023 -4.01091797 14.09874023 -3.5 12.3125 C-3.16613281 11.13365234 -2.83226562 9.95480469 -2.48828125 8.74023438 C-1.66233267 5.8258158 -0.83276872 2.91247572 0 0 Z " fill="#8A7402" transform="translate(134,219)"/>
<path d="M0 0 C2.97 1.65 5.94 3.3 9 5 C9 5.33 9 5.66 9 6 C6.69 6.33 4.38 6.66 2 7 C2 6.34 2 5.68 2 5 C1.34 5 0.68 5 0 5 C0.2475 5.78375 0.495 6.5675 0.75 7.375 C1.06320597 11.91648653 -0.2591381 14.73230898 -2.08984375 18.828125 C-3.12883304 20.91495114 -3.12883304 20.91495114 -3 23 C-2.01 23.33 -1.02 23.66 0 24 C-0.33 24.66 -0.66 25.32 -1 26 C-1.99 26 -2.98 26 -4 26 C-6.07626313 30.62440425 -7.70022952 35.1008651 -9 40 C-8.34 40 -7.68 40 -7 40 C-7.63017598 42.94082123 -8.66015736 45.32031473 -10 48 C-10 48.66 -10 49.32 -10 50 C-11.32 50.66 -12.64 51.32 -14 52 C-13.51219859 47.20328611 -12.84804733 43.45705531 -11 39 C-10.54174321 36.89244114 -10.08367962 34.78484005 -9.62670898 32.67700195 C-8.45362 27.66612518 -6.95848647 22.74633395 -5.5 17.8125 C-5.03787109 16.23178711 -5.03787109 16.23178711 -4.56640625 14.61914062 C-3.12671494 9.71615756 -1.66878809 4.83114151 0 0 Z " fill="#456704" transform="translate(183,44)"/>
<path d="M0 0 C2.64 0.33 5.28 0.66 8 1 C8 1.66 8 2.32 8 3 C11.96 3 15.92 3 20 3 C20.495 3.99 20.495 3.99 21 5 C19.93809448 5.00616333 19.93809448 5.00616333 18.85473633 5.01245117 C4.42091097 5.15817673 -8.93315418 6.06510611 -22.8671875 9.94140625 C-25.99637571 10.80860647 -28.72659891 11.2584264 -32 11 C-26.6307176 5.6307176 -19.28791429 4.46272472 -12 4 C-12 3.01 -12 2.02 -12 1 C-8.04 1 -4.08 1 0 1 C0 0.67 0 0.34 0 0 Z " fill="#A9BCF9" transform="translate(54,217)"/>
<path d="M0 0 C1.32 0 2.64 0 4 0 C5.44420413 3.85160352 4.53193175 6.57177801 3.41796875 10.4453125 C3.06283203 11.68667969 2.70769531 12.92804688 2.34179688 14.20703125 C2.15222412 14.84979004 1.96265137 15.49254883 1.76733398 16.15478516 C1.18840642 18.1219201 0.62730511 20.09351208 0.06835938 22.06640625 C-2.73305861 31.73305861 -2.73305861 31.73305861 -5 34 C-5.69748583 35.31747324 -6.36959957 36.64914193 -7 38 C-6.71865802 30.16462577 -5.68516579 22.71973229 -4.0625 15.0625 C-3.89266602 14.2583667 -3.72283203 13.4542334 -3.54785156 12.62573242 C-2.60361264 8.31505691 -1.48993183 4.1624553 0 0 Z " fill="#736204" transform="translate(259,157)"/>
<path d="M0 0 C0.99 0 1.98 0 3 0 C1.33961123 6.37157318 -0.50303732 12.66496029 -2.5 18.9375 C-4.9301905 26.60381842 -6.90349964 34.33121687 -8.7421875 42.16015625 C-10.07821982 47.71777522 -11.5356359 52.83657047 -14 58 C-14.33 58 -14.66 58 -15 58 C-14.38541771 49.9295642 -13.30774665 41.98614219 -12 34 C-10.515 33.505 -10.515 33.505 -9 33 C-8.87625 32.113125 -8.7525 31.22625 -8.625 30.3125 C-8 27 -8 27 -7 24.625 C-6.07560407 22.19846069 -5.75779305 20.36741322 -5.5 17.8125 C-5 14 -5 14 -3 12 C-2.35822405 9.90407756 -2.35822405 9.90407756 -1.9375 7.5625 C-1.41445483 4.93862879 -0.84906993 2.54720979 0 0 Z " fill="#6DA10E" transform="translate(286,51)"/>
<path d="M0 0 C0 0.33 0 0.66 0 1 C-0.89460938 0.9278125 -1.78921875 0.855625 -2.7109375 0.78125 C-19.9780623 -1.20553481 -19.9780623 -1.20553481 -36 4 C-36.66 4.33 -37.32 4.66 -38 5 C-38.33 5.66 -38.66 6.32 -39 7 C-39 6.01 -39 5.02 -39 4 C-39.886875 4.495 -40.77375 4.99 -41.6875 5.5 C-44.87586238 6.94378674 -46.58187546 7.30159922 -50 7 C-49.67 6.34 -49.34 5.68 -49 5 C-51.91517292 6.07401108 -53.77810176 6.77810176 -56 9 C-59.0390625 9.4140625 -59.0390625 9.4140625 -62.625 9.625 C-63.81351562 9.69976562 -65.00203125 9.77453125 -66.2265625 9.8515625 C-67.14179687 9.90054687 -68.05703125 9.94953125 -69 10 C-66.55817208 8.37211472 -64.92204558 7.50950989 -62.2265625 6.59765625 C-61.49050781 6.34846436 -60.75445312 6.09927246 -59.99609375 5.8425293 C-59.21363281 5.58511963 -58.43117188 5.32770996 -57.625 5.0625 C-56.81933594 4.79671143 -56.01367188 4.53092285 -55.18359375 4.25708008 C-36.80304228 -1.69870076 -19.08124718 -3.85063006 0 0 Z " fill="#F59A53" transform="translate(138,17)"/>
<path d="M0 0 C-0.66 0 -1.32 0 -2 0 C-2.33 1.32 -2.66 2.64 -3 4 C-3 3.34 -3 2.68 -3 2 C-5.48039849 2.80889048 -7.95930212 3.62191901 -10.4375 4.4375 C-11.14455078 4.66759766 -11.85160156 4.89769531 -12.58007812 5.13476562 C-16.06306795 6.07421147 -16.06306795 6.07421147 -19 8 C-31.79132568 11.36613834 -44.90904083 13.14213223 -58.125 13.25 C-58.82343018 13.25926514 -59.52186035 13.26853027 -60.24145508 13.27807617 C-64.5629201 13.25139077 -67.96165527 12.4654839 -72 11 C-74.83193816 10.51715263 -77.66311322 10.12817062 -80.51171875 9.7578125 C-83.54293081 8.83464901 -84.38767402 7.66384292 -86 5 C-83.24991865 5.64548853 -80.49993244 6.29137766 -77.75 6.9375 C-76.97269531 7.11990234 -76.19539062 7.30230469 -75.39453125 7.49023438 C-74.64042969 7.66748047 -73.88632813 7.84472656 -73.109375 8.02734375 C-72.41811523 8.18968506 -71.72685547 8.35202637 -71.01464844 8.51928711 C-69.67326557 8.8393529 -68.33730513 9.18307565 -67.00805664 9.55029297 C-47.86718338 13.83691772 -23.59630916 8.31396628 -6.09375 0.24609375 C-3 -1 -3 -1 0 0 Z " fill="#E0C55E" transform="translate(261,157)"/>
<path d="M0 0 C1.32 0 2.64 0 4 0 C3.32624337 6.05652584 1.77741908 11.68999631 0.05859375 17.52734375 C-0.22853989 18.51626114 -0.51567352 19.50517853 -0.81150818 20.52406311 C-1.72406072 23.66318988 -2.64317721 26.80035008 -3.5625 29.9375 C-4.18468003 32.07344097 -4.8064295 34.20950742 -5.42773438 36.34570312 C-6.94684111 41.56526501 -8.47133272 46.78323063 -10 52 C-10.66 50.68 -11.32 49.36 -12 48 C-11.34 48 -10.68 48 -10 48 C-10.20625 46.88625 -10.4125 45.7725 -10.625 44.625 C-10.74875 43.42875 -10.8725 42.2325 -11 41 C-10.34 40.34 -9.68 39.68 -9 39 C-8.40831688 35.99337318 -8.04476582 32.98484836 -7.66015625 29.9453125 C-7 27 -7 27 -5.46484375 25.10546875 C-3.30903069 22.00684678 -3.54716527 18.83607068 -3.5 15.1875 C-3.42347053 9.36579395 -2.58483334 5.25903592 0 0 Z " fill="#485E21" transform="translate(289,51)"/>
<path d="M0 0 C1 4 1 4 1 6 C2.2236068 3.9254644 2.2236068 3.9254644 2 1 C2.99 1 3.98 1 5 1 C3.9706067 8.24638702 2.32399717 14.46495702 -1 21 C-1.66 20.67 -2.32 20.34 -3 20 C-7.55203025 19.66020056 -10.51559285 20.3936446 -14.625 22.3125 C-30.47176552 29.2479298 -30.47176552 29.2479298 -37 27 C-33.89074232 25.18626635 -30.7665195 24.45272235 -27.28515625 23.6328125 C-22.21889657 22.22984828 -17.38287952 20.04370891 -12.57421875 17.9375 C-10 17 -10 17 -4 16 C-2.68 10.72 -1.36 5.44 0 0 Z " fill="#867412" transform="translate(237,234)"/>
<path d="M0 0 C0.99 0.66 1.98 1.32 3 2 C2.34625762 9.14758336 0.60473671 15.84473236 -1.3125 22.75 C-1.60833984 23.87277344 -1.90417969 24.99554688 -2.20898438 26.15234375 C-2.50740234 27.23128906 -2.80582031 28.31023437 -3.11328125 29.421875 C-3.37923096 30.39737305 -3.64518066 31.37287109 -3.91918945 32.37792969 C-5.13569075 35.32918876 -6.61869398 36.91060398 -9 39 C-10.47894845 34.2986273 -9.32676389 30.61637929 -7.91015625 26.07421875 C-7.68678085 25.32662796 -7.46340546 24.57903717 -7.23326111 23.80879211 C-6.52032301 21.43166358 -5.79168328 19.05968971 -5.0625 16.6875 C-4.57512682 15.07258065 -4.08878686 13.45734909 -3.60351562 11.84179688 C-2.41428385 7.89081406 -1.21095141 3.94437743 0 0 Z " fill="#CAB83B" transform="translate(133,209)"/>
<path d="M0 0 C9.34921802 1.98891022 17.99927441 5.93928056 26.30664062 10.59716797 C22.8964065 11.73391268 22.36830172 11.4931449 19.16601562 10.23388672 C18.35068359 9.92467285 17.53535156 9.61545898 16.6953125 9.296875 C15.82455078 8.96284668 14.95378906 8.62881836 14.05664062 8.28466797 C-0.96600522 2.80553642 -15.83153324 2.20909629 -31.69335938 1.59716797 C-24.03184388 -3.51050903 -8.84341529 -1.32266454 0 0 Z " fill="#1F23AC" transform="translate(76.693359375,222.40283203125)"/>
<path d="M0 0 C6.65347895 0.13861414 10.75599724 3.11158979 16 7 C15.34 7.33 14.68 7.66 14 8 C11.6171875 6.78515625 11.6171875 6.78515625 8.875 5.0625 C7.96492188 4.49660156 7.05484375 3.93070313 6.1171875 3.34765625 C5.41851562 2.90292969 4.71984375 2.45820312 4 2 C3.54560547 3.4540625 3.54560547 3.4540625 3.08203125 4.9375 C2.88198486 5.57751953 2.68193848 6.21753906 2.47583008 6.87695312 C2.02875697 8.30785033 1.58198596 9.73884196 1.13549805 11.16992188 C-0.02771645 14.89676509 -1.19544296 18.62204417 -2.375 22.34375 C-2.59518799 23.04113281 -2.81537598 23.73851563 -3.04223633 24.45703125 C-3.655571 26.39890963 -4.27108519 28.34009922 -4.88671875 30.28125 C-5.81925596 33.39625148 -6.64525887 36.51270405 -7.41723633 39.67041016 C-8.69577556 44.78135331 -10.10372411 49.85774314 -11.5 54.9375 C-11.80808594 56.08541016 -12.11617187 57.23332031 -12.43359375 58.41601562 C-12.73394531 59.50462891 -13.03429687 60.59324219 -13.34375 61.71484375 C-13.61380859 62.70605225 -13.88386719 63.69726074 -14.16210938 64.71850586 C-15 67 -15 67 -17 68 C-16.34404715 62.31761776 -14.99123109 57.04261476 -13.375 51.5625 C-13.11283691 50.65943115 -12.85067383 49.7563623 -12.58056641 48.82592773 C-11.72495555 45.8825962 -10.86262433 42.94128295 -10 40 C-9.39543332 37.92719996 -8.79127059 35.85428207 -8.1875 33.78125 C-6.9980077 29.69865697 -5.80632098 25.61671387 -4.61328125 21.53515625 C-2.7145051 15.03126395 -0.847696 8.51857968 1 2 C0.34 1.67 -0.32 1.34 -1 1 C-0.67 0.67 -0.34 0.34 0 0 Z " fill="#89B72B" transform="translate(180,43)"/>
<path d="M0 0 C0.66 0.33 1.32 0.66 2 1 C1.68474155 7.62042752 0.46145565 13.70121114 -1.3125 20.0625 C-1.61353638 21.20609985 -1.61353638 21.20609985 -1.9206543 22.37280273 C-2.55078125 24.53515625 -2.55078125 24.53515625 -4 28 C-5.94311523 28.7902832 -5.94311523 28.7902832 -8 29 C-10.359375 27.8203125 -10.359375 27.8203125 -12.75 26.125 C-13.54921875 25.57070312 -14.3484375 25.01640625 -15.171875 24.4453125 C-15.77515625 23.96835938 -16.3784375 23.49140625 -17 23 C-17 22.67 -17 22.34 -17 22 C-14.02148438 22.04882812 -14.02148438 22.04882812 -11.04296875 22.09765625 C-8.79694539 22.08263217 -8.79694539 22.08263217 -6 21 C-5.34 17.37 -4.68 13.74 -4 10 C-4.66 10 -5.32 10 -6 10 C-5.67 9.34 -5.34 8.68 -5 8 C-4.01 8.33 -3.02 8.66 -2 9 C-1.34 6.03 -0.68 3.06 0 0 Z " fill="#8B2F1A" transform="translate(151,98)"/>
<path d="M0 0 C0.86671772 3.16337376 0.99470854 5.4844244 0.5625 8.75 C0.46066406 9.54921875 0.35882813 10.3484375 0.25390625 11.171875 C0.17011719 11.77515625 0.08632812 12.3784375 0 13 C0.66 12.67 1.32 12.34 2 12 C1.35587386 14.77124036 0.70977252 17.54199445 0.0625 20.3125 C-0.11990234 21.09818359 -0.30230469 21.88386719 -0.49023438 22.69335938 C-0.66748047 23.45068359 -0.84472656 24.20800781 -1.02734375 24.98828125 C-1.18968506 25.68477783 -1.35202637 26.38127441 -1.51928711 27.09887695 C-1.93765565 28.7534406 -2.46031369 30.38094108 -3 32 C-3.9590625 32.1546875 -3.9590625 32.1546875 -4.9375 32.3125 C-5.9584375 32.6528125 -5.9584375 32.6528125 -7 33 C-8.3045656 35.99615946 -8.3045656 35.99615946 -9 39 C-10.26369434 35.41106575 -9.71956011 33.10229046 -8.671875 29.4921875 C-8.21361328 27.88730469 -8.21361328 27.88730469 -7.74609375 26.25 C-7.41738281 25.13625 -7.08867187 24.0225 -6.75 22.875 C-6.43675781 21.78445312 -6.12351563 20.69390625 -5.80078125 19.5703125 C-3.91604402 13.03238584 -1.96876851 6.51306753 0 0 Z " fill="#8C7102" transform="translate(253,178)"/>
<path d="M0 0 C1.32 0.33 2.64 0.66 4 1 C0.04 2.98 0.04 2.98 -4 5 C-3 2 -3 2 0 0 Z M-4 5 C-5.5830577 9.2742558 -8.50568404 11.26531794 -12 14 C-12.33 13.01 -12.66 12.02 -13 11 C-13.66 11 -14.32 11 -15 11 C-15.33 13.31 -15.66 15.62 -16 18 C-17.32 18.33 -18.64 18.66 -20 19 C-19.67 15.04 -19.34 11.08 -19 7 C-13.34679502 4.73871801 -9.91927324 3.47790117 -4 5 Z " fill="#F16D14" transform="translate(87,21)"/>
<path d="M0 0 C3.76786532 0.77027789 7.10120749 2.2962712 10.625 3.8125 C26.41751304 10.25711757 42.05156699 11.723174 59 12 C59 12.33 59 12.66 59 13 C39.52472204 16.90105722 18.39272772 12.67696275 1 3 C0.67 2.01 0.34 1.02 0 0 Z " fill="#48611E" transform="translate(163,145)"/>
<path d="M0 0 C0.66 0 1.32 0 2 0 C2.91297308 4.97063121 2.91297308 9.02936879 2 14 C1.34 14 0.68 14 0 14 C-0.28875 14.94875 -0.5775 15.8975 -0.875 16.875 C-2 20 -2 20 -4 22 C-4.24315656 24.66949409 -4.24315656 24.66949409 -4.125 27.625 C-4.09792969 29.12933594 -4.09792969 29.12933594 -4.0703125 30.6640625 C-4.04710937 31.43492187 -4.02390625 32.20578125 -4 33 C-6.31 32.67 -8.62 32.34 -11 32 C-10.67 29.36 -10.34 26.72 -10 24 C-9.06576355 27.01031744 -8.95550089 27.86650268 -10 31 C-9.34 31 -8.68 31 -8 31 C-7.90847656 30.10152344 -7.81695312 29.20304687 -7.72265625 28.27734375 C-6.90572254 22.55880779 -5.0919713 17.08286462 -3.4375 11.5625 C-3.10814453 10.44939453 -2.77878906 9.33628906 -2.43945312 8.18945312 C-1.6306592 5.45830842 -0.81739587 2.72858014 0 0 Z " fill="#496C03" transform="translate(165,106)"/>
<path d="M0 0 C0.33 0 0.66 0 1 0 C1.42452375 7.00880395 -0.10729201 12.71182544 -2.1875 19.375 C-2.83200365 21.49831148 -3.47521971 23.62201419 -4.1171875 25.74609375 C-4.43655273 26.79522949 -4.75591797 27.84436523 -5.08496094 28.92529297 C-6.64291205 34.16030801 -8.04281803 39.43985849 -9.40112305 44.72998047 C-9.87540835 46.50339508 -10.4297494 48.25507588 -11 50 C-11.99 50.495 -11.99 50.495 -13 51 C-13.0270043 49.54176788 -13.04639787 48.08339325 -13.0625 46.625 C-13.07410156 45.81289062 -13.08570313 45.00078125 -13.09765625 44.1640625 C-13 42 -13 42 -12 40 C-11.34 40 -10.68 40 -10 40 C-10 37.03 -10 34.06 -10 31 C-9.01 30.67 -8.02 30.34 -7 30 C-6.95101562 29.40832031 -6.90203125 28.81664062 -6.8515625 28.20703125 C-6.77679688 27.41683594 -6.70203125 26.62664062 -6.625 25.8125 C-6.55539063 25.03519531 -6.48578125 24.25789063 -6.4140625 23.45703125 C-6 21 -6 21 -5.05859375 18.6484375 C-3.76709255 15.41730166 -3.12369989 12.22194345 -2.4375 8.8125 C-1.10193322 2.20386643 -1.10193322 2.20386643 0 0 Z " fill="#ECC512" transform="translate(246,194)"/>
<path d="M0 0 C4.53770004 -0.30938864 6.56167472 0.03592649 10 3 C10.99 3.33 11.98 3.66 13 4 C13.33 3.34 13.66 2.68 14 2 C14.33 4.31 14.66 6.62 15 9 C16.46225016 9.09245003 16.46225016 9.09245003 19 7 C19 8.32 19 9.64 19 11 C21.31 11 23.62 11 26 11 C25.42655063 13.86724686 25.1385485 14.8614515 23 17 C18.93594878 16.67459897 16.10025938 15.07616254 12.6875 12.9375 C11.80449219 12.38964844 10.92148438 11.84179688 10.01171875 11.27734375 C9.34785156 10.85582031 8.68398437 10.43429688 8 10 C9.32 9.34 10.64 8.68 12 8 C11.46890625 7.67386719 10.9378125 7.34773437 10.390625 7.01171875 C6.81763269 4.80141876 3.29917687 2.61184836 0 0 Z " fill="#363AAC" transform="translate(90,224)"/>
<path d="M0 0 C0 0.33 0 0.66 0 1 C-1.42892578 1.00386719 -1.42892578 1.00386719 -2.88671875 1.0078125 C-9.8103403 0.9427618 -9.8103403 0.9427618 -16.04296875 3.40234375 C-17.55342476 5.18848099 -17.55342476 5.18848099 -19 8 C-19.33 7.34 -19.66 6.68 -20 6 C-20.99 7.485 -20.99 7.485 -22 9 C-22.66 9 -23.32 9 -24 9 C-24.33 8.34 -24.66 7.68 -25 7 C-25.928125 7.185625 -26.85625 7.37125 -27.8125 7.5625 C-31 8 -31 8 -34 7 C-34.33 6.34 -34.66 5.68 -35 5 C-10.23735581 -1.96872227 -10.23735581 -1.96872227 0 0 Z " fill="#8A9FE3" transform="translate(86,127)"/>
<path d="M0 0 C1.4049404 3.89060419 0.69513239 7.23092362 0.0625 11.25 C-0.13214844 12.51328125 -0.32679687 13.7765625 -0.52734375 15.078125 C-0.76130859 16.52445313 -0.76130859 16.52445313 -1 18 C-0.29423828 17.36771484 -0.29423828 17.36771484 0.42578125 16.72265625 C1.35970703 15.90087891 1.35970703 15.90087891 2.3125 15.0625 C2.92738281 14.51722656 3.54226562 13.97195312 4.17578125 13.41015625 C6 12 6 12 9 11 C9 11.66 9 12.32 9 13 C9.66 13 10.32 13 11 13 C11.33 12.01 11.66 11.02 12 10 C12 10.66 12 11.32 12 12 C12.61875 11.79375 13.2375 11.5875 13.875 11.375 C14.926875 11.189375 14.926875 11.189375 16 11 C16.66 11.66 17.32 12.32 18 13 C14.27599905 15.4386648 10.76961588 16.83049635 6.5 18.0625 C2.57149472 19.20525446 -1.22609129 20.41580324 -5 22 C-4.38955672 14.36945905 -2.20378179 7.29810526 0 0 Z " fill="#F98023" transform="translate(45,102)"/>
<path d="M0 0 C0.66 0 1.32 0 2 0 C1.29294235 6.7956096 -0.62221839 13.19661758 -2.5 19.75 C-2.98146484 21.45349609 -2.98146484 21.45349609 -3.47265625 23.19140625 C-5.79923115 31.39769345 -5.79923115 31.39769345 -7 35 C-9.21093824 36.19141712 -11.312298 37.17997393 -13.625 38.125 C-15.43871094 38.90230469 -15.43871094 38.90230469 -17.2890625 39.6953125 C-20.9962796 40.99869199 -24.11914737 41.59096412 -28 42 C-24.96205445 39.48757583 -22.08561027 38.11771466 -18.375 36.8125 C-17.41335937 36.46832031 -16.45171875 36.12414062 -15.4609375 35.76953125 C-13 35 -13 35 -11 35 C-9.58622659 32.36095629 -8.62759865 29.92879371 -8 27 C-7.34 27 -6.68 27 -6 27 C-5.90912109 26.11248047 -5.90912109 26.11248047 -5.81640625 25.20703125 C-5.11088184 18.55339334 -3.89247176 12.43440397 -2 6 C-1.34 6 -0.68 6 0 6 C0 4.02 0 2.04 0 0 Z " fill="#6C9E0B" transform="translate(269,110)"/>
<path d="M0 0 C0.33 0 0.66 0 1 0 C1 4.29 1 8.58 1 13 C0.67 13 0.34 13 0 13 C-0.12375 13.9075 -0.2475 14.815 -0.375 15.75 C-1 19 -1 19 -2 20.9375 C-3.41875825 23.86368889 -3.62999496 26.79328966 -4 30 C-4.66 30 -5.32 30 -6 30 C-6 32.31 -6 34.62 -6 37 C-6.66 37 -7.32 37 -8 37 C-7.79375 37.78375 -7.5875 38.5675 -7.375 39.375 C-7.189375 40.674375 -7.189375 40.674375 -7 42 C-7.66 42.66 -8.32 43.32 -9 44 C-11.32274478 35.17356983 -7.49206486 25.7941564 -5 17.3125 C-4.73960937 16.41466797 -4.47921875 15.51683594 -4.2109375 14.59179688 C-3.70731402 12.85582199 -3.20218261 11.12028362 -2.6953125 9.38525391 C-1.7843856 6.26033963 -0.89081479 3.13070007 0 0 Z " fill="#395B01" transform="translate(285,62)"/>
<path d="M0 0 C3.375 0.3125 3.375 0.3125 7 1 C9.48570024 4.72855036 9.30344304 7.69110878 9 12 C8.5 14.5 8.5 14.5 8 16 C7.34 16 6.68 16 6 16 C5.01 18.97 4.02 21.94 3 25 C2.34 24.67 1.68 24.34 1 24 C0.59270772 21.67843403 0.25561323 19.3431213 0 17 C0.99 17 1.98 17 3 17 C2.34 15.02 1.68 13.04 1 11 C2.32 11 3.64 11 5 11 C4.67 10.01 4.34 9.02 4 8 C3.96045766 5.66700175 3.95598268 3.33291811 4 1 C2.68 0.67 1.36 0.34 0 0 Z " fill="#941F04" transform="translate(162,31)"/>
<path d="M0 0 C0.99 0 1.98 0 3 0 C3 0.66 3 1.32 3 2 C6.465 3.485 6.465 3.485 10 5 C10 5.33 10 5.66 10 6 C0.1 6.33 -9.8 6.66 -20 7 C-20 6.34 -20 5.68 -20 5 C-15.68073307 3.33874349 -11.68977147 2.65055271 -7.125 2.21875 C-4.71020176 1.97016783 -2.36719253 1.53452734 0 1 C0 0.67 0 0.34 0 0 Z " fill="#F38E49" transform="translate(96,106)"/>
<path d="M0 0 C18.81 0.495 18.81 0.495 38 1 C35.05758634 3.94241366 32.91384567 3.98219058 28.79296875 4.0625 C27.60316406 4.041875 26.41335937 4.02125 25.1875 4 C21.35958782 3.95654589 18.02166527 3.99602803 14.25 4.6875 C9.53647965 5.14072311 5.32557819 3.88104646 1 2 C0.67 1.34 0.34 0.68 0 0 Z " fill="#96C940" transform="translate(221,60)"/>
<path d="M0 0 C5.33416674 -0.49087424 8.7805746 1.0797077 13.25 3.75 C14.18585938 4.27207031 14.18585938 4.27207031 15.140625 4.8046875 C18.44704567 6.72868228 20.93847146 8.19750971 22 12 C21.125 14.25 21.125 14.25 20 16 C20 14.35 20 12.7 20 11 C19.34 10.67 18.68 10.34 18 10 C17.34 9.34 16.68 8.68 16 8 C13.40423759 7.57403392 13.40423759 7.57403392 10.5 7.4375 C5.19033233 7.09516616 5.19033233 7.09516616 3 6 C2.67 6.66 2.34 7.32 2 8 C0 1.125 0 1.125 0 0 Z " fill="#B13913" transform="translate(151,24)"/>
<path d="M0 0 C0 0.33 0 0.66 0 1 C-0.57854736 1.08040527 -1.15709473 1.16081055 -1.75317383 1.24365234 C-16.92387331 3.33000171 -16.92387331 3.33000171 -32 6 C-31.67 5.34 -31.34 4.68 -31 4 C-31.66 3.34 -32.32 2.68 -33 2 C-22.05196602 -2.01201245 -11.41660831 -0.91608816 0 0 Z " fill="#4F53B9" transform="translate(63,224)"/>
<path d="M0 0 C-1.375 2 -1.375 2 -3 4 C-3.66 4 -4.32 4 -5 4 C-4.34 5.32 -3.68 6.64 -3 8 C-4.32 8 -5.64 8 -7 8 C-7.33 7.34 -7.66 6.68 -8 6 C-9.95894361 6.11306697 -9.95894361 6.11306697 -12 7 C-13.29660434 9.49034386 -13.29660434 9.49034386 -14 12 C-14.66 11.67 -15.32 11.34 -16 11 C-16 9.68 -16 8.36 -16 7 C-15.34 7 -14.68 7 -14 7 C-13.92394531 6.38769531 -13.84789062 5.77539062 -13.76953125 5.14453125 C-13 3 -13 3 -11.07421875 1.69921875 C-10.28660156 1.36535156 -9.49898437 1.03148437 -8.6875 0.6875 C-7.51767578 0.16736328 -7.51767578 0.16736328 -6.32421875 -0.36328125 C-3.76500187 -1.06437764 -2.46900018 -0.87573233 0 0 Z " fill="#587DF9" transform="translate(51,136)"/>
<path d="M0 0 C1.65 0.33 3.3 0.66 5 1 C5 1.66 5 2.32 5 3 C6.3921875 3.4021875 6.3921875 3.4021875 7.8125 3.8125 C10.76240366 4.91148371 12.05615186 5.62418561 14 8 C13.2575 7.814375 12.515 7.62875 11.75 7.4375 C8.9544582 6.99275471 7.64700205 7.17281186 5 8 C3.33480481 8.34060811 1.66842534 8.67558396 0 9 C-0.28875 10.134375 -0.5775 11.26875 -0.875 12.4375 C-1.24625 13.613125 -1.6175 14.78875 -2 16 C-2.66 16.33 -3.32 16.66 -4 17 C-2.76123355 11.30694567 -1.43723997 5.64629987 0 0 Z " fill="#8B7605" transform="translate(153,152)"/>
<path d="M0 0 C1.65 0.33 3.3 0.66 5 1 C3.64741104 8.88416983 1.45600648 16.39353334 -1 24 C-1.33 24 -1.66 24 -2 24 C-1.86152362 20.37467934 -1.71297357 16.74984096 -1.5625 13.125 C-1.52318359 12.09246094 -1.48386719 11.05992187 -1.44335938 9.99609375 C-1.40146484 9.00996094 -1.35957031 8.02382812 -1.31640625 7.0078125 C-1.27974854 6.09660645 -1.24309082 5.18540039 -1.20532227 4.24658203 C-1 2 -1 2 0 0 Z " fill="#272FBA" transform="translate(137,143)"/>
<path d="M0 0 C0.80824219 0.3609375 1.61648437 0.721875 2.44921875 1.09375 C3.51785156 1.5578125 4.58648437 2.021875 5.6875 2.5 C6.74324219 2.9640625 7.79898438 3.428125 8.88671875 3.90625 C11.85627816 4.94950801 13.89195063 5.23065301 17 5 C17 6.32 17 7.64 17 9 C17.61875 9.0825 18.2375 9.165 18.875 9.25 C21 10 21 10 22.1328125 12.046875 C22.41898438 12.69140625 22.70515625 13.3359375 23 14 C14.52556968 11.66222612 7.4852274 7.4826184 0 3 C0 2.01 0 1.02 0 0 Z " fill="#A89312" transform="translate(127,244)"/>
<path d="M0 0 C0.66 0 1.32 0 2 0 C2.33 0.66 2.66 1.32 3 2 C3.33 1.34 3.66 0.68 4 0 C4.66 0.33 5.32 0.66 6 1 C6.20625 1.9075 6.4125 2.815 6.625 3.75 C8.55323046 8.30763563 11.67473373 9.85021419 16 12 C16.99 12.33 17.98 12.66 19 13 C18.67 13.99 18.34 14.98 18 16 C17.48953125 15.70867187 16.9790625 15.41734375 16.453125 15.1171875 C10.07653847 11.52187807 3.56649946 8.233251 -3 5 C-1.625 2.5 -1.625 2.5 0 0 Z " fill="#CE4207" transform="translate(127,114)"/>
<path d="M0 0 C5.12508226 -0.40785189 7.98925654 0.69729742 12.375 3.3125 C13.43460938 3.92738281 14.49421875 4.54226562 15.5859375 5.17578125 C16.38257813 5.77777344 17.17921875 6.37976563 18 7 C18 7.99 18 8.98 18 10 C16.02 10.66 14.04 11.32 12 12 C11.67 11.01 11.34 10.02 11 9 C11.33 8.34 11.66 7.68 12 7 C10.11683841 5.89163577 10.11683841 5.89163577 8 5 C7.01 5.495 7.01 5.495 6 6 C5.34 5.67 4.68 5.34 4 5 C4 4.34 4 3.68 4 3 C3.01 3 2.02 3 1 3 C0.67 2.01 0.34 1.02 0 0 Z " fill="#4E60D6" transform="translate(118,133)"/>
<path d="M0 0 C1.16983989 3.42967895 0.81325413 5.54339435 -0.21484375 8.984375 C-0.48876953 9.91894531 -0.76269531 10.85351562 -1.04492188 11.81640625 C-1.33947266 12.78449219 -1.63402344 13.75257812 -1.9375 14.75 C-2.22818359 15.73355469 -2.51886719 16.71710938 -2.81835938 17.73046875 C-3.53672769 20.15643388 -4.26420822 22.57927358 -5 25 C-5.66 25 -6.32 25 -7 25 C-8.81632211 17.28063101 -6.60785756 11.34229426 -4 4 C-3.67 4.66 -3.34 5.32 -3 6 C-2.34 6 -1.68 6 -1 6 C-0.67 4.02 -0.34 2.04 0 0 Z " fill="#81A932" transform="translate(162,112)"/>
<path d="M0 0 C-9.69018578 6.46012385 -21.32478561 10.70408443 -33 11 C-29.83307161 8.42599873 -27.28229521 7.4867395 -23.28515625 6.59765625 C-18.14819791 5.25414407 -13.27416997 2.97953706 -8.40625 0.8828125 C-5.49921524 -0.18372947 -3.071949 -0.14288135 0 0 Z " fill="#A69206" transform="translate(233,251)"/>
<path d="M0 0 C1.44110157 3.83749427 0.52469311 6.457924 -0.65234375 10.296875 C-1.01650391 11.50214844 -1.38066406 12.70742187 -1.75585938 13.94921875 C-2.14580078 15.20347656 -2.53574219 16.45773438 -2.9375 17.75 C-3.32839684 19.03227111 -3.7183813 20.31482073 -4.10742188 21.59765625 C-5.06266555 24.73462932 -6.02716681 27.86844586 -7 31 C-7.33 31 -7.66 31 -8 31 C-7.76034224 28.87731702 -7.51955634 26.75475604 -7.2734375 24.6328125 C-7.09583025 22.92270838 -6.95315026 21.20848595 -6.8515625 19.4921875 C-6.44353831 13.29410569 -4.85909482 8.50541979 -2 3 C-1.34 3 -0.68 3 0 3 C0 2.01 0 1.02 0 0 Z " fill="#484DB6" transform="translate(127,192)"/>
<path d="M0 0 C0.33 0 0.66 0 1 0 C0.88590318 2.10478604 0.75834639 4.20884577 0.625 6.3125 C0.55539063 7.48425781 0.48578125 8.65601563 0.4140625 9.86328125 C0 13 0 13 -2 16 C-2.5807525 18.07296379 -3.0050213 20.14947884 -3.4375 22.2578125 C-3.623125 22.83273438 -3.80875 23.40765625 -4 24 C-4.66 24.33 -5.32 24.66 -6 25 C-6.09945415 18.88909517 -6.0712828 13.02596573 -5 7 C-4.01 7 -3.02 7 -2 7 C-1.34 4.69 -0.68 2.38 0 0 Z " fill="#141CBF" transform="translate(135,154)"/>
<path d="M0 0 C0 0.33 0 0.66 0 1 C-0.89460938 0.9278125 -1.78921875 0.855625 -2.7109375 0.78125 C-15.52615773 -0.54646958 -15.52615773 -0.54646958 -28.1875 1 C-31.97513365 1.99347768 -35.11015087 2.07779698 -39 2 C-39.99 2.495 -39.99 2.495 -41 3 C-43.3329866 3.04022391 -45.66706666 3.04320247 -48 3 C-48 2.67 -48 2.34 -48 2 C-31.71905084 -2.05747792 -16.57486651 -3.34483793 0 0 Z " fill="#EDAF81" transform="translate(138,17)"/>
<path d="M0 0 C0 2.82197229 -0.36470336 5.12390373 -0.9375 7.875 C-1.11152344 8.71804687 -1.28554687 9.56109375 -1.46484375 10.4296875 C-1.82575723 12.16312595 -2.21315011 13.8912339 -2.625 15.61328125 C-3.1298332 18.82633419 -2.17861985 21.01878508 -1 24 C-3.64738916 25.4606285 -4.89448334 26 -8 26 C-7.35622648 20.53877522 -6.12907699 15.45357368 -4.5625 10.1875 C-4.34529297 9.42501953 -4.12808594 8.66253906 -3.90429688 7.87695312 C-2.2465343 2.2465343 -2.2465343 2.2465343 0 0 Z " fill="#8B7202" transform="translate(145,186)"/>
<path d="M0 0 C1.32 0 2.64 0 4 0 C5.31534494 3.65857532 4.65468309 6.08026481 3.5625 9.75 C3.27503906 10.73484375 2.98757813 11.7196875 2.69140625 12.734375 C2.34916016 13.85585937 2.34916016 13.85585937 2 15 C1.01 14.34 0.02 13.68 -1 13 C-1.99 13.495 -1.99 13.495 -3 14 C-2.48594831 9.03083364 -1.76615118 4.70973649 0 0 Z " fill="#96832B" transform="translate(259,157)"/>
<path d="M0 0 C1.32 0.66 2.64 1.32 4 2 C3.71682074 3.60568666 3.42312209 5.20952047 3.125 6.8125 C2.96257812 7.70582031 2.80015625 8.59914063 2.6328125 9.51953125 C2 12 2 12 0 15 C-0.33 14.01 -0.66 13.02 -1 12 C-2.32 15.3 -3.64 18.6 -5 22 C-6.18795291 17.24818836 -5.12847013 14.34542447 -3.625 9.875 C-3.39039063 9.14667969 -3.15578125 8.41835937 -2.9140625 7.66796875 C-1.20076885 2.4015377 -1.20076885 2.4015377 0 0 Z " fill="#4E6A18" transform="translate(274,102)"/>
<path d="M0 0 C1.26856145 3.80568436 0.5105389 5.38854175 -0.65234375 9.19921875 C-1.01650391 10.40771484 -1.38066406 11.61621094 -1.75585938 12.86132812 C-2.14955268 14.13677646 -2.54343533 15.41216636 -2.9375 16.6875 C-3.3282691 17.97436819 -3.71825262 19.26147521 -4.10742188 20.54882812 C-5.06389828 23.70165777 -6.02838316 26.85180968 -7 30 C-7.66 28.68 -8.32 27.36 -9 26 C-8.34 26 -7.68 26 -7 26 C-7.20625 24.88625 -7.4125 23.7725 -7.625 22.625 C-7.74875 21.42875 -7.8725 20.2325 -8 19 C-7.34 18.34 -6.68 17.68 -6 17 C-5.40831688 13.99337318 -5.04476582 10.98484836 -4.66015625 7.9453125 C-3.8762432 4.44785427 -2.49672682 2.49672682 0 0 Z " fill="#596938" transform="translate(286,73)"/>
<path d="M0 0 C1.13803684 3.41411053 0.85464223 4.32062435 -0.125 7.6875 C-0.54072266 9.12609375 -0.54072266 9.12609375 -0.96484375 10.59375 C-2.93474696 17.07584661 -4.95020647 23.5427453 -7 30 C-7.33 30 -7.66 30 -8 30 C-8.51148371 23.36001151 -6.65241388 17.88247209 -4.5625 11.625 C-4.07426758 10.11099609 -4.07426758 10.11099609 -3.57617188 8.56640625 C-1.15832605 1.15832605 -1.15832605 1.15832605 0 0 Z " fill="#8E8A2E" transform="translate(133,213)"/>
<path d="M0 0 C0.99 0 1.98 0 3 0 C1.00581159 9.61425792 -1.76150476 18.74532783 -5 28 C-5.33 28 -5.66 28 -6 28 C-6.42771205 21.57540865 -4.85687895 16.18099979 -3 10.0625 C-2.57074219 8.6074707 -2.57074219 8.6074707 -2.1328125 7.12304688 C-1.43025583 4.74606348 -0.71915599 2.37200342 0 0 Z " fill="#919030" transform="translate(140,184)"/>
<path d="M0 0 C5.34398918 0.56120263 9.41314514 2.40412149 14.125 4.8125 C14.82753906 5.15603516 15.53007812 5.49957031 16.25390625 5.85351562 C20.11899496 7.80067279 23.11951252 9.67923075 26 13 C21.27983807 12.47475943 18.1488469 11.17972348 14.125 8.6875 C9.49889828 5.88415158 4.87325031 3.3429088 0 1 C0 0.67 0 0.34 0 0 Z " fill="#9F4020" transform="translate(118,117)"/>
<path d="M0 0 C1.42678734 3.85232581 0.56476507 6.7689383 -0.375 10.6875 C-1.34347128 14.87548392 -2.17569931 18.90109089 -2.5 23.1875 C-3.01592226 27.12140727 -3.20717426 27.60084384 -6 30 C-5.79589978 19.33112497 -3.27124194 10.07928791 0 0 Z " fill="#E87F41" transform="translate(60,50)"/>
<path d="M0 0 C0.66 0.33 1.32 0.66 2 1 C1.01 6.28 0.02 11.56 -1 17 C-1.66 17 -2.32 17 -3 17 C-3.66 18.98 -4.32 20.96 -5 23 C-6.11378736 19.68177296 -5.87728255 17.75179221 -4.78515625 14.453125 C-4.51123047 13.60878906 -4.23730469 12.76445313 -3.95507812 11.89453125 C-3.51325195 10.58548828 -3.51325195 10.58548828 -3.0625 9.25 C-2.77181641 8.36183594 -2.48113281 7.47367188 -2.18164062 6.55859375 C-1.46360682 4.36917921 -0.73614477 2.18337811 0 0 Z " fill="#E78140" transform="translate(67,27)"/>
<path d="M0 0 C1.32 0.66 2.64 1.32 4 2 C3.34 2 2.68 2 2 2 C2.061875 3.19625 2.12375 4.3925 2.1875 5.625 C2.20943937 9.73497595 1.13130434 12.4478261 -1 16 C-1.99 16 -2.98 16 -4 16 C-2.98408579 10.53135543 -1.92908943 5.23609987 0 0 Z " fill="#416BF9" transform="translate(28,174)"/>
<path d="M0 0 C0.89623695 2.91277009 1.0843877 3.76793382 0 6.75 C-1.29527629 10.95964795 -0.74345105 13.68798393 0 18 C-0.99 18 -1.98 18 -3 18 C-2.814375 18.9075 -2.62875 19.815 -2.4375 20.75 C-1.81533103 25.37182666 -2.4238618 27.1357927 -5 31 C-5.43254188 20.13839278 -3.73707752 10.19202961 0 0 Z " fill="#877006" transform="translate(242,217)"/>
<path d="M0 0 C-0.33 0.66 -0.66 1.32 -1 2 C-3.86434404 2.63912692 -6.66879881 3.16944544 -9.5625 3.625 C-10.77196289 3.82609375 -10.77196289 3.82609375 -12.00585938 4.03125 C-14.0026124 4.36207299 -16.0011567 4.68205038 -18 5 C-18 4.01 -18 3.02 -18 2 C-18.66 1.67 -19.32 1.34 -20 1 C-14.49226442 -0.12658228 -14.49226442 -0.12658228 -11.8125 0.5625 C-11.214375 0.706875 -10.61625 0.85125 -10 1 C-6.1496895 -1.56687367 -4.41430237 -0.83288724 0 0 Z " fill="#FAD11F" transform="translate(209,257)"/>
<path d="M0 0 C0.93045933 2.55144824 1.08564091 3.74006478 0.22265625 6.359375 C-0.16019531 7.14828125 -0.54304688 7.9371875 -0.9375 8.75 C-1.31777344 9.54921875 -1.69804688 10.3484375 -2.08984375 11.171875 C-2.39019531 11.77515625 -2.69054687 12.3784375 -3 13 C-5.97 12.505 -5.97 12.505 -9 12 C-7.625 10.5 -7.625 10.5 -6 9 C-5.34 9 -4.68 9 -4 9 C-3.67 6.36 -3.34 3.72 -3 1 C-2.01 0.67 -1.02 0.34 0 0 Z " fill="#2D34B6" transform="translate(118,223)"/>
<path d="M0 0 C1.3494709 2.69894181 0.66874571 3.72118731 -0.21484375 6.5703125 C-0.48876953 7.46621094 -0.76269531 8.36210937 -1.04492188 9.28515625 C-1.33947266 10.22230469 -1.63402344 11.15945312 -1.9375 12.125 C-2.22818359 13.06988281 -2.51886719 14.01476562 -2.81835938 14.98828125 C-3.53906479 17.32762013 -4.26652606 19.66463921 -5 22 C-5.66 22 -6.32 22 -7 22 C-6.33333333 16.66666667 -5.66666667 11.33333333 -5 6 C-4.34 6 -3.68 6 -3 6 C-2.814375 5.071875 -2.814375 5.071875 -2.625 4.125 C-2 2 -2 2 0 0 Z " fill="#E6BE11" transform="translate(255,170)"/>
<path d="M0 0 C0.33 0.66 0.66 1.32 1 2 C1.825 2.309375 2.65 2.61875 3.5 2.9375 C4.7375 3.4634375 4.7375 3.4634375 6 4 C6.33 4.99 6.66 5.98 7 7 C7.66 7 8.32 7 9 7 C9 7.66 9 8.32 9 9 C7.41531323 8.54636829 5.83230076 8.08688548 4.25 7.625 C3.36828125 7.36976563 2.4865625 7.11453125 1.578125 6.8515625 C-0.76080572 6.0790066 -2.83442562 5.16374324 -5 4 C-5 3.34 -5 2.68 -5 2 C-3.35 1.34 -1.7 0.68 0 0 Z " fill="#719D12" transform="translate(175,144)"/>
<path d="M0 0 C2.43871153 0.11342844 4.34835414 0.48705113 6.6875 1.125 C8.68538438 1.47078768 10.68509451 1.80643549 12.6875 2.125 C12.3575 3.115 12.0275 4.105 11.6875 5.125 C11.09582031 5.04121094 10.50414062 4.95742188 9.89453125 4.87109375 C5.58810543 4.31610576 1.93197356 3.89273348 -2.3125 5.125 C-2.875 3.1875 -2.875 3.1875 -3.3125 1.125 C-2.3125 0.125 -2.3125 0.125 0 0 Z " fill="#F85D07" transform="translate(136.3125,18.875)"/>
<path d="M0 0 C1.16983989 3.42967895 0.81325413 5.54339435 -0.21484375 8.984375 C-0.48876953 9.91894531 -0.76269531 10.85351562 -1.04492188 11.81640625 C-1.33947266 12.78449219 -1.63402344 13.75257813 -1.9375 14.75 C-2.22818359 15.73355469 -2.51886719 16.71710938 -2.81835938 17.73046875 C-3.53672769 20.15643388 -4.26420822 22.57927358 -5 25 C-5.33 25 -5.66 25 -6 25 C-6.33378829 18.74456011 -6.20439225 14.54606351 -3 9 C-2.30269194 6.6756398 -1.63087848 4.34326294 -1 2 C-0.67 1.34 -0.34 0.68 0 0 Z " fill="#4046B0" transform="translate(134,167)"/>
<path d="M0 0 C2.5 0.3125 2.5 0.3125 5 1 C5.33 1.66 5.66 2.32 6 3 C4.35 2.67 2.7 2.34 1 2 C0.87625 3.19625 0.7525 4.3925 0.625 5.625 C0.17674946 9.27596813 -0.70446837 12.54524899 -2 16 C-2.33 16 -2.66 16 -3 16 C-2.979375 15.0925 -2.95875 14.185 -2.9375 13.25 C-2.83564516 10.1516878 -2.83564516 10.1516878 -3.6875 7.9375 C-4.16983689 4.94701126 -2.6809703 3.39215004 -1 1 C-0.67 0.67 -0.34 0.34 0 0 Z " fill="#BDAC42" transform="translate(152,150)"/>
<path d="M0 0 C-1.32 0.33 -2.64 0.66 -4 1 C-4 1.99 -4 2.98 -4 4 C-8.17737474 5.59138085 -11.53160785 6.21278058 -16 6 C-16.33 5.01 -16.66 4.02 -17 3 C-5.47835991 -0.44419134 -5.47835991 -0.44419134 0 0 Z " fill="#8091E1" transform="translate(68,129)"/>
<path d="M0 0 C3.96 0 7.92 0 12 0 C12 2.31 12 4.62 12 7 C7.0682659 6.55166054 3.6807076 4.13973905 0 1 C0 0.67 0 0.34 0 0 Z " fill="#A22403" transform="translate(134,120)"/>
<path d="M0 0 C0.66 0 1.32 0 2 0 C2.91297308 4.97063121 2.91297308 9.02936879 2 14 C1.34 14 0.68 14 0 14 C-0.66 15.32 -1.32 16.64 -2 18 C-2.2361959 11.59646678 -1.823321 6.15370839 0 0 Z " fill="#426203" transform="translate(165,106)"/>
<path d="M0 0 C0.33 0 0.66 0 1 0 C0.85879286 1.93784265 0.71187127 3.87526955 0.5625 5.8125 C0.48128906 6.89144531 0.40007812 7.97039062 0.31640625 9.08203125 C-0.08941443 12.82459973 -1.28962678 15.69327844 -3 19 C-3.66 19 -4.32 19 -5 19 C-4.57910004 13.39538469 -4.08386889 8.27913453 -2 3 C-1.34 3 -0.68 3 0 3 C0 2.01 0 1.02 0 0 Z " fill="#719227" transform="translate(164,99)"/>
<path d="M0 0 C2.26960847 3.40441271 2.16765738 4.11246073 1.6875 8 C1.53861328 9.299375 1.53861328 9.299375 1.38671875 10.625 C1 13 1 13 0 16 C-0.66 16 -1.32 16 -2 16 C-4 14 -4 14 -5 11 C-4.01 11 -3.02 11 -2 11 C-2.04125 10.29875 -2.0825 9.5975 -2.125 8.875 C-1.98331668 5.61628372 -1.13265314 3.0440053 0 0 Z " fill="#8D2C19" transform="translate(155,82)"/>
<path d="M0 0 C0 0.99 0 1.98 0 3 C-2.24743045 3.53181175 -4.49807102 4.05007126 -6.75 4.5625 C-8.62945312 4.99755859 -8.62945312 4.99755859 -10.546875 5.44140625 C-13.59473748 5.93444283 -15.17641828 6.07666879 -18 5 C-16.13103445 4.15321949 -14.25449819 3.32313789 -12.375 2.5 C-10.80878906 1.80390625 -10.80878906 1.80390625 -9.2109375 1.09375 C-5.91875709 -0.02767398 -3.44884777 -0.207138 0 0 Z " fill="#515D0B" transform="translate(234,253)"/>
<path d="M0 0 C-0.66 0.66 -1.32 1.32 -2 2 C-2 2.33 -2 2.66 -2 3 C-4.06081361 3.50690584 -6.12373526 4.00524619 -8.1875 4.5 C-9.91033203 4.91765625 -9.91033203 4.91765625 -11.66796875 5.34375 C-14.56818829 5.91495385 -17.06096385 6.13283779 -20 6 C-15.19111189 1.19111189 -6.62835886 -2.20945295 0 0 Z " fill="#8DA6F8" transform="translate(42,222)"/>
<path d="M0 0 C0.66 0.33 1.32 0.66 2 1 C-0.36970497 4.21602818 -2.17078395 6.64124592 -6 8 C-6.99 8 -7.98 8 -9 8 C-10.6875 6 -10.6875 6 -12 4 C-11.21753906 3.79503906 -10.43507813 3.59007812 -9.62890625 3.37890625 C-8.61699219 3.10949219 -7.60507812 2.84007812 -6.5625 2.5625 C-5.55316406 2.29566406 -4.54382813 2.02882812 -3.50390625 1.75390625 C-1.08247999 1.24021923 -1.08247999 1.24021923 0 0 Z " fill="#86D407" transform="translate(274,56)"/>
<path d="M0 0 C6.65347895 0.13861414 10.75599724 3.11158979 16 7 C15.01 7.495 15.01 7.495 14 8 C10.52085828 6.22620807 7.31014019 4.07944704 4 2 C2.68 5.63 1.36 9.26 0 13 C-1.13757948 8.44968209 -0.4283779 6.36915594 1 2 C0.34 1.67 -0.32 1.34 -1 1 C-0.67 0.67 -0.34 0.34 0 0 Z " fill="#A0BE5E" transform="translate(180,43)"/>
<path d="M0 0 C8.25 0 16.5 0 25 0 C25 0.33 25 0.66 25 1 C8.16402415 3.93537907 8.16402415 3.93537907 1 2 C0.67 1.34 0.34 0.68 0 0 Z " fill="#435E14" transform="translate(197,157)"/>
<path d="M0 0 C0.99 0 1.98 0 3 0 C4.38550197 2.77100394 4.1877467 4.9334706 4 8 C3.01 9.485 3.01 9.485 2 11 C1.01 11 0.02 11 -1 11 C-0.67 7.37 -0.34 3.74 0 0 Z " fill="#FA680C" transform="translate(68,29)"/>
<path d="M0 0 C1.3660652 3.83845082 0.73432149 7.09356344 0.125 11.0625 C-0.05804688 12.29097656 -0.24109375 13.51945312 -0.4296875 14.78515625 C-1 18 -1 18 -2 21 C-2.99 21.33 -3.98 21.66 -5 22 C-4.38955672 14.36945905 -2.20378179 7.29810526 0 0 Z " fill="#E08145" transform="translate(45,102)"/>
<path d="M0 0 C0.66 0.33 1.32 0.66 2 1 C1.34 3.64 0.68 6.28 0 9 C1.65 9 3.3 9 5 9 C4.875 10.875 4.875 10.875 4 13 C0.9375 14.25 0.9375 14.25 -2 15 C-2.19392201 9.47322267 -1.7479503 5.24385089 0 0 Z " fill="#F5680F" transform="translate(46,105)"/>
<path d="M0 0 C0.99 0 1.98 0 3 0 C2.25 6.625 2.25 6.625 0 10 C0.33 10.99 0.66 11.98 1 13 C0.01 13.99 -0.98 14.98 -2 16 C-3.83280557 10.50158328 -1.93512808 5.28935009 0 0 Z " fill="#F5650C" transform="translate(60,55)"/>
<path d="M0 0 C4.53770004 -0.30938864 6.56167472 0.03592649 10 3 C10.99 3.33 11.98 3.66 13 4 C13.33 3.34 13.66 2.68 14 2 C14.144375 3.11375 14.28875 4.2275 14.4375 5.375 C14.78372035 8.82142047 14.78372035 8.82142047 16 11 C13.59392748 9.96882606 12.05094319 9.05458198 10.25 7.125 C7.20965748 4.2535654 3.7777876 2.72384483 0 1 C0 0.67 0 0.34 0 0 Z " fill="#3348DA" transform="translate(90,224)"/>
<path d="M0 0 C0.98484375 0.01804687 1.9696875 0.03609375 2.984375 0.0546875 C4.10585938 0.08949219 4.10585938 0.08949219 5.25 0.125 C2.81815788 2.55684212 1.04947325 2.92251051 -2.25 3.8125 C-3.71953125 4.22048828 -3.71953125 4.22048828 -5.21875 4.63671875 C-7.75 5.125 -7.75 5.125 -9.75 4.125 C-9.75 3.465 -9.75 2.805 -9.75 2.125 C-6.40060119 0.09941119 -3.88037449 -0.09238987 0 0 Z " fill="#9A411C" transform="translate(50.75,120.875)"/>
<path d="M0 0 C0.33 0.66 0.66 1.32 1 2 C-0.4562545 2.67119549 -1.91507867 3.33681807 -3.375 4 C-4.59316406 4.556875 -4.59316406 4.556875 -5.8359375 5.125 C-8 6 -8 6 -10 6 C-10 5.01 -10 4.02 -10 3 C-10.66 2.67 -11.32 2.34 -12 2 C-7.8803623 0.70756464 -4.33168317 -0.26252625 0 0 Z " fill="#373BB9" transform="translate(32,227)"/>
<path d="M0 0 C8.38785271 -0.83507383 14.48641103 1.38521493 22 5 C22 5.33 22 5.66 22 6 C16.555 5.505 16.555 5.505 11 5 C11 4.34 11 3.68 11 3 C7.37 2.67 3.74 2.34 0 2 C0 1.34 0 0.68 0 0 Z " fill="#7D95F7" transform="translate(63,218)"/>
<path d="M0 0 C5.63470383 -0.5497272 8.38987758 1.04952165 13 4 C10.50907189 5.24546405 9.58919267 4.7767578 7 4 C6.01 5.485 6.01 5.485 5 7 C4.34 6.67 3.68 6.34 3 6 C2.67 6.66 2.34 7.32 2 8 C0 1.125 0 1.125 0 0 Z " fill="#CD5528" transform="translate(151,24)"/>
<path d="M0 0 C0.99 0.33 1.98 0.66 3 1 C-10.44874715 7.70387244 -10.44874715 7.70387244 -18 8 C-15.08235 6.0549 -13.37462715 5.54723683 -10 5 C-9.67 4.01 -9.34 3.02 -9 2 C-7.329375 1.7834375 -7.329375 1.7834375 -5.625 1.5625 C-2.17857953 1.21627965 -2.17857953 1.21627965 0 0 Z " fill="#F5CA0C" transform="translate(228,249)"/>
<path d="M0 0 C1.28961193 2.57922387 0.79211692 3.40291211 0.00390625 6.1328125 C-0.22490234 6.93847656 -0.45371094 7.74414062 -0.68945312 8.57421875 C-0.93630859 9.41597656 -1.18316406 10.25773438 -1.4375 11.125 C-1.68048828 11.97449219 -1.92347656 12.82398438 -2.17382812 13.69921875 C-2.7761431 15.80141612 -3.38510525 17.90145431 -4 20 C-6.24089172 15.84059618 -5.91529825 13.83447461 -4.78125 9.328125 C-3.62425338 5.88027507 -1.95410958 3.06143835 0 0 Z " fill="#8B8240" transform="translate(254,190)"/>
<path d="M0 0 C-1 3 -1 3 -2.84765625 3.94921875 C-3.94400391 4.31466797 -3.94400391 4.31466797 -5.0625 4.6875 C-6.16271484 5.06455078 -6.16271484 5.06455078 -7.28515625 5.44921875 C-7.85105469 5.63097656 -8.41695312 5.81273437 -9 6 C-9 5.34 -9 4.68 -9 4 C-10.65 3.67 -12.3 3.34 -14 3 C-10.45175471 -0.54824529 -4.80349002 0 0 0 Z " fill="#F9D12E" transform="translate(224,168)"/>
<path d="M0 0 C2.64 0 5.28 0 8 0 C7.67 1.32 7.34 2.64 7 4 C7.66 4 8.32 4 9 4 C9 4.66 9 5.32 9 6 C9.66 6.33 10.32 6.66 11 7 C9.68 7 8.36 7 7 7 C7 6.34 7 5.68 7 5 C4.36 4.34 1.72 3.68 -1 3 C-0.67 2.01 -0.34 1.02 0 0 Z " fill="#FB7218" transform="translate(99,106)"/>
<path d="M0 0 C-3.16351048 2.10900699 -5.88040844 3.0584157 -9.5 4.1875 C-10.6446875 4.55230469 -11.789375 4.91710937 -12.96875 5.29296875 C-16 6 -16 6 -19 5 C-19 4.34 -19 3.68 -19 3 C-16.77228658 2.49356447 -14.54275924 1.9951038 -12.3125 1.5 C-10.45044922 1.08234375 -10.45044922 1.08234375 -8.55078125 0.65625 C-5.57601782 0.10645874 -3.00631398 -0.13795705 0 0 Z " fill="#5F6D32" transform="translate(229,257)"/>
<path d="M0 0 C0 4 0 4 -2.375 6.625 C-3.24125 7.40875 -4.1075 8.1925 -5 9 C-5.66 9.66 -6.32 10.32 -7 11 C-7.33 9.35 -7.66 7.7 -8 6 C-7.34 6 -6.68 6 -6 6 C-5.896875 5.38125 -5.79375 4.7625 -5.6875 4.125 C-4.72223986 1.14146864 -3.16449578 0 0 0 Z " fill="#3F66F1" transform="translate(43,137)"/>
<path d="M0 0 C0 0.66 0 1.32 0 2 C-1.03060547 2.29003906 -1.03060547 2.29003906 -2.08203125 2.5859375 C-2.98308594 2.84632813 -3.88414063 3.10671875 -4.8125 3.375 C-5.70582031 3.63023437 -6.59914063 3.88546875 -7.51953125 4.1484375 C-10.20467896 4.95266661 -10.20467896 4.95266661 -13 7 C-13.33 7.99 -13.66 8.98 -14 10 C-14.66 10 -15.32 10 -16 10 C-16.0625 7.75 -16.0625 7.75 -15 5 C-12.13713032 3.30017113 -9.11140098 2.16463449 -6 1 C-4 0 -4 0 0 0 Z " fill="#6580DB" transform="translate(51,133)"/>
<path d="M0 0 C0.33 0 0.66 0 1 0 C1.48736475 6.70126536 0.07708804 11.06561592 -3 17 C-3.33 17 -3.66 17 -4 17 C-4.21192221 11.80790596 -3.5912689 7.873261 -2 3 C-1.34 3 -0.68 3 0 3 C0 2.01 0 1.02 0 0 Z " fill="#4F6FDA" transform="translate(29,165)"/>
<path d="M0 0 C2.93453261 0.36681658 3.86437246 0.86437246 6 3 C0.87674471 5.45489316 -3.33895411 6.50341703 -9 7 C-6.702779 5.25728062 -4.40133271 3.60088848 -2 2 C-1.34 1.34 -0.68 0.68 0 0 Z " fill="#99E80B" transform="translate(238,146)"/>
<path d="M0 0 C1.56393356 3.97376829 0.36145292 6.81377903 -0.9375 10.75 C-1.31777344 11.92046875 -1.69804687 13.0909375 -2.08984375 14.296875 C-2.39019531 15.18890625 -2.69054687 16.0809375 -3 17 C-3.33 17 -3.66 17 -4 17 C-3.91266027 14.91589342 -3.80447722 12.83265331 -3.6875 10.75 C-3.62949219 9.58984375 -3.57148438 8.4296875 -3.51171875 7.234375 C-2.98288197 3.89180362 -2.26227667 2.4502943 0 0 Z " fill="#4245B2" transform="translate(139,150)"/>
<path d="M0 0 C1.47919922 0.19142578 1.47919922 0.19142578 2.98828125 0.38671875 C4.47908203 0.56654297 4.47908203 0.56654297 6 0.75 C6.75925781 0.85699219 7.51851562 0.96398437 8.30078125 1.07421875 C8.63078125 2.06421875 8.96078125 3.05421875 9.30078125 4.07421875 C4.35078125 3.74421875 -0.59921875 3.41421875 -5.69921875 3.07421875 C-2.69921875 0.07421875 -2.69921875 0.07421875 0 0 Z " fill="#3E42B7" transform="translate(70.69921875,221.92578125)"/>
<path d="M0 0 C0.66 0 1.32 0 2 0 C2.1875 3.375 2.1875 3.375 2 7 C1.01 7.66 0.02 8.32 -1 9 C-1.25030977 11.58380177 -1.25030977 11.58380177 -1 14 C-1.99 14 -2.98 14 -4 14 C-3.71572583 12.41532272 -3.42225182 10.8322943 -3.125 9.25 C-2.96257812 8.36828125 -2.80015625 7.4865625 -2.6328125 6.578125 C-2.03203736 4.13052256 -1.22002883 2.19400143 0 0 Z " fill="#8E7303" transform="translate(149,170)"/>
<path d="M0 0 C0.79277344 0.05671875 1.58554688 0.1134375 2.40234375 0.171875 C4.35231735 0.31283695 6.30128671 0.4675712 8.25 0.625 C8.25 0.955 8.25 1.285 8.25 1.625 C-2.145 2.615 -2.145 2.615 -12.75 3.625 C-12.75 2.965 -12.75 2.305 -12.75 1.625 C-8.74561779 -1.1952907 -4.62663461 -0.38363471 0 0 Z " fill="#FCB77A" transform="translate(88.75,109.375)"/>
<path d="M0 0 C0.66 0.33 1.32 0.66 2 1 C2 3.97 2 6.94 2 10 C0.68 10.33 -0.64 10.66 -2 11 C-2.33 11.66 -2.66 12.32 -3 13 C-2.45144652 8.428721 -1.58255197 4.32564205 0 0 Z " fill="#5373DF" transform="translate(19,197)"/>
<path d="M0 0 C5.28 0.99 10.56 1.98 16 3 C12.70703201 5.19531199 12.25029625 5.2036671 8.5625 4.6875 C7.80066406 4.58824219 7.03882813 4.48898438 6.25390625 4.38671875 C4.13324225 4.02286132 2.07828837 3.55389462 0 3 C0 2.01 0 1.02 0 0 Z " fill="#4C6C1B" transform="translate(184,153)"/>
<path d="M0 0 C5.15516904 1.23724057 8.61047221 2.90737815 13 6 C13.99 6.33 14.98 6.66 16 7 C15.67 7.99 15.34 8.98 15 10 C9.84957486 7.20732504 4.76413825 4.42040695 0 1 C0 0.67 0 0.34 0 0 Z " fill="#DC6129" transform="translate(130,120)"/>
<path d="M0 0 C2.31 0.33 4.62 0.66 7 1 C7 1.66 7 2.32 7 3 C7.66 3 8.32 3 9 3 C9.33 3.99 9.66 4.98 10 6 C5.80530429 5.40075776 1.99000166 4.42500059 -2 3 C-1.34 2.67 -0.68 2.34 0 2 C0 1.34 0 0.68 0 0 Z " fill="#E8580D" transform="translate(116,112)"/>
<path d="M0 0 C1.21065165 3.63195496 0.62784815 5.06531629 -0.4375 8.6875 C-0.86869141 10.17830078 -0.86869141 10.17830078 -1.30859375 11.69921875 C-1.53675781 12.45847656 -1.76492187 13.21773437 -2 14 C-4 11 -4 11 -3.828125 8.5546875 C-3.63734375 7.67039063 -3.4465625 6.78609375 -3.25 5.875 C-3.06953125 4.98554688 -2.8890625 4.09609375 -2.703125 3.1796875 C-2.47109375 2.46039063 -2.2390625 1.74109375 -2 1 C-1.34 0.67 -0.68 0.34 0 0 Z " fill="#847930" transform="translate(248,210)"/>
<path d="M0 0 C-4.47718792 2.98479194 -8.63824093 4 -14 4 C-14 3.34 -14 2.68 -14 2 C-8.77729131 -0.66464729 -5.9180497 -1.32854177 0 0 Z " fill="#576B2B" transform="translate(252,152)"/>
<path d="M0 0 C-2.32877571 2.88214816 -3.53338618 3.91208725 -7.234375 4.609375 C-8.97460938 4.67898437 -8.97460938 4.67898437 -10.75 4.75 C-11.92046875 4.80671875 -13.0909375 4.8634375 -14.296875 4.921875 C-15.63492188 4.96054687 -15.63492188 4.96054687 -17 5 C-11.65467807 1.43645204 -6.50060481 -0.48754536 0 0 Z " fill="#EA8C4D" transform="translate(86,22)"/>
<path d="M0 0 C0.33 1.32 0.66 2.64 1 4 C3.31 4 5.62 4 8 4 C7.67 5.32 7.34 6.64 7 8 C3.35521088 8 1.90696599 7.14197494 -1 5 C-1.8125 2.8125 -1.8125 2.8125 -2 1 C-1.34 0.67 -0.68 0.34 0 0 Z " fill="#4656D9" transform="translate(108,231)"/>
<path d="M0 0 C1.29065057 3.8719517 0.22324098 6.44232601 -0.9375 10.1875 C-1.23043945 11.16879883 -1.23043945 11.16879883 -1.52929688 12.16992188 C-2.01182563 13.78227407 -2.50490205 15.39146289 -3 17 C-3.33 17 -3.66 17 -4 17 C-4.22577402 11.5814234 -3.46670113 7.22512279 -2 2 C-1.34 2 -0.68 2 0 2 C0 1.34 0 0.68 0 0 Z " fill="#8A813E" transform="translate(259,172)"/>
<path d="M0 0 C2.31 0.33 4.62 0.66 7 1 C8.04449911 4.13349732 7.93423645 4.98968256 7 8 C6.01 8 5.02 8 4 8 C4 5.69 4 3.38 4 1 C2.68 0.67 1.36 0.34 0 0 Z " fill="#9C2005" transform="translate(162,31)"/>
<path d="M0 0 C0.99 0.99 1.98 1.98 3 3 C2.85546875 5.48046875 2.85546875 5.48046875 2.1875 8.1875 C1.86845703 9.53908203 1.86845703 9.53908203 1.54296875 10.91796875 C1.27419922 11.94857422 1.27419922 11.94857422 1 13 C0.34 13 -0.32 13 -1 13 C-0.67 8.71 -0.34 4.42 0 0 Z " fill="#8D3926" transform="translate(146,113)"/>
<path d="M0 0 C0.66 0 1.32 0 2 0 C2.19622241 4.21878192 1.80230168 7.17010894 0 11 C-0.66 11 -1.32 11 -2 11 C-2.33 11.99 -2.66 12.98 -3 14 C-2.40380045 9.13103697 -1.43023178 4.67209049 0 0 Z " fill="#7D9B40" transform="translate(166,88)"/>
<path d="M0 0 C0.625 1.875 0.625 1.875 1 4 C0.34 4.66 -0.32 5.32 -1 6 C-0.67 4.02 -0.34 2.04 0 0 Z M-3 6 C-2.34 6 -1.68 6 -1 6 C-1.53725895 9.37705625 -2.11064623 12.696686 -3 16 C-3.66 16 -4.32 16 -5 16 C-4.85950482 14.52031676 -4.71245174 13.04125484 -4.5625 11.5625 C-4.48128906 10.73878906 -4.40007812 9.91507812 -4.31640625 9.06640625 C-4 7 -4 7 -3 6 Z " fill="#74B008" transform="translate(278,78)"/>
<path d="M0 0 C0.66 0.66 1.32 1.32 2 2 C1.9765625 4.3828125 1.9765625 4.3828125 1.625 7.125 C1.51414062 8.03507813 1.40328125 8.94515625 1.2890625 9.8828125 C1.19367187 10.58148438 1.09828125 11.28015625 1 12 C1.66 12.33 2.32 12.66 3 13 C1.35 13.33 -0.3 13.66 -2 14 C-1.34 9.38 -0.68 4.76 0 0 Z " fill="#3C60E8" transform="translate(14,216)"/>
<path d="M0 0 C0.33 0 0.66 0 1 0 C0.44854729 5.23880078 -0.42922093 9.97350697 -2 15 C-2.66 14.34 -3.32 13.68 -4 13 C-3.7578125 10.6171875 -3.7578125 10.6171875 -3.125 7.875 C-2.92132813 6.96492188 -2.71765625 6.05484375 -2.5078125 5.1171875 C-2.34023437 4.41851562 -2.17265625 3.71984375 -2 3 C-1.34 3 -0.68 3 0 3 C0 2.01 0 1.02 0 0 Z " fill="#6E8F28" transform="translate(171,75)"/>
<path d="M0 0 C0.66 0 1.32 0 2 0 C1.71572583 1.58467728 1.42225182 3.1677057 1.125 4.75 C0.88136719 6.07257813 0.88136719 6.07257813 0.6328125 7.421875 C0.03203736 9.86947744 -0.77997117 11.80599857 -2 14 C-3.32854177 8.0819503 -2.66464729 5.22270869 0 0 Z " fill="#8F3E2F" transform="translate(162,64)"/>
<path d="M0 0 C0.99 0 1.98 0 3 0 C3.28571429 8.57142857 3.28571429 8.57142857 1 12 C-1.83022097 8.00439392 -0.76210446 4.57262677 0 0 Z " fill="#982006" transform="translate(160,56)"/>
<path d="M0 0 C1.32 0.33 2.64 0.66 4 1 C0.04 2.98 0.04 2.98 -4 5 C-3 2 -3 2 0 0 Z M-8 4 C-6.02 4.495 -6.02 4.495 -4 5 C-4.99 6.32 -5.98 7.64 -7 9 C-7.66 8.01 -8.32 7.02 -9 6 C-8.67 5.34 -8.34 4.68 -8 4 Z " fill="#FA7F28" transform="translate(87,21)"/>
<path d="M0 0 C1.17949219 0.19464844 2.35898438 0.38929688 3.57421875 0.58984375 C4.92966797 0.82380859 4.92966797 0.82380859 6.3125 1.0625 C3.04189407 3.24290395 2.54875511 3.28333539 -1.125 2.8125 C-1.88683594 2.72484375 -2.64867187 2.6371875 -3.43359375 2.546875 C-5.78188552 2.04221611 -7.5954315 1.22528978 -9.6875 0.0625 C-6.00942463 -1.16352512 -3.80506073 -0.64045577 0 0 Z " fill="#64692A" transform="translate(164.6875,261.9375)"/>
<path d="M0 0 C1.96035175 0.44962196 3.91824309 0.90998248 5.875 1.375 C7.51082031 1.75785156 7.51082031 1.75785156 9.1796875 2.1484375 C12 3 12 3 14 5 C5.36497244 5.4390692 5.36497244 5.4390692 1 2 C0.67 1.34 0.34 0.68 0 0 Z " fill="#D5BC54" transform="translate(175,162)"/>
<path d="M0 0 C1.98 0 3.96 0 6 0 C4.25 3.875 4.25 3.875 2 5 C2 4.34 2 3.68 2 3 C1.34 3 0.68 3 0 3 C0 2.01 0 1.02 0 0 Z M-2 3 C-1.01 3.33 -0.02 3.66 1 4 C0.67 4.66 0.34 5.32 0 6 C-0.66 6 -1.32 6 -2 6 C-2 5.01 -2 4.02 -2 3 Z " fill="#8FA5F8" transform="translate(64,130)"/>
<path d="M0 0 C-0.33 0.99 -0.66 1.98 -1 3 C-4.63 3 -8.26 3 -12 3 C-8.40198016 -0.59801984 -4.84291279 -0.09137571 0 0 Z " fill="#A53808" transform="translate(60,118)"/>
<path d="M0 0 C0.99 0.33 1.98 0.66 3 1 C2.37240135 3.92879371 1.41377341 6.36095629 0 9 C-0.66 9 -1.32 9 -2 9 C-2 7.02 -2 5.04 -2 3 C-1.34 3 -0.68 3 0 3 C0 2.01 0 1.02 0 0 Z " fill="#4567E5" transform="translate(34,148)"/>
<path d="M0 0 C0.66 0 1.32 0 2 0 C2 1.98 2 3.96 2 6 C1.34 6 0.68 6 0 6 C-0.33 6.99 -0.66 7.98 -1 9 C-1.66 8.67 -2.32 8.34 -3 8 C-2.37240135 5.07120629 -1.41377341 2.63904371 0 0 Z " fill="#161FCA" transform="translate(115,218)"/>
<path d="M0 0 C1.26823485 3.65393537 0.75715321 6.49070026 0.0625 10.25 C-0.13214844 11.32765625 -0.32679688 12.4053125 -0.52734375 13.515625 C-0.68332031 14.33546875 -0.83929688 15.1553125 -1 16 C-1.66 15.34 -2.32 14.68 -3 14 C-2.66621509 8.99322638 -1.76961889 4.71898372 0 0 Z " fill="#967D03" transform="translate(253,178)"/>
<path d="M0 0 C0.66 1.32 1.32 2.64 2 4 C0.68 5.32 -0.64 6.64 -2 8 C-2 7.34 -2 6.68 -2 6 C-2.99 5.67 -3.98 5.34 -5 5 C-4.34 5 -3.68 5 -3 5 C-3.33 4.01 -3.66 3.02 -4 2 C-2.68 1.34 -1.36 0.68 0 0 Z " fill="#FC7519" transform="translate(78,25)"/>
<path d="M0 0 C0.99 0 1.98 0 3 0 C2.67 1.65 2.34 3.3 2 5 C1.34 5 0.68 5 0 5 C-0.66 6.98 -1.32 8.96 -2 11 C-2.95465783 8.83032311 -3.14401212 7.43671207 -2.3984375 5.17578125 C-1.64129615 3.4315257 -0.82390802 1.71372869 0 0 Z " fill="#826B03" transform="translate(246,206)"/>
<path d="M0 0 C1.22602512 3.67807537 0.70295577 5.88243927 0.0625 9.6875 C-0.13214844 10.86699219 -0.32679687 12.04648438 -0.52734375 13.26171875 C-0.68332031 14.16535156 -0.83929688 15.06898438 -1 16 C-1.66 16 -2.32 16 -3 16 C-3 14.35 -3 12.7 -3 11 C-2.34 11 -1.68 11 -1 11 C-1.01160156 10.28972656 -1.02320312 9.57945312 -1.03515625 8.84765625 C-1.04417969 7.92855469 -1.05320312 7.00945312 -1.0625 6.0625 C-1.07410156 5.14597656 -1.08570312 4.22945312 -1.09765625 3.28515625 C-1 1 -1 1 0 0 Z " fill="#151CB0" transform="translate(128,179)"/>
<path d="M0 0 C3.96 0 7.92 0 12 0 C12 0.33 12 0.66 12 1 C10.02 1.33 8.04 1.66 6 2 C5.67 2.99 5.34 3.98 5 5 C4.34 5 3.68 5 3 5 C3 4.34 3 3.68 3 3 C2.01 2.67 1.02 2.34 0 2 C0 1.34 0 0.68 0 0 Z " fill="#E8C21C" transform="translate(198,170)"/>
<path d="M0 0 C1.25127906 3.54667178 0.72285053 5.72253438 -0.4375 9.25 C-0.72496094 10.14203125 -1.01242188 11.0340625 -1.30859375 11.953125 C-1.53675781 12.62859375 -1.76492187 13.3040625 -2 14 C-2.33 14 -2.66 14 -3 14 C-3.14285714 6.57142857 -3.14285714 6.57142857 -2 3 C-1.34 3 -0.68 3 0 3 C0 2.01 0 1.02 0 0 Z " fill="#8E8925" transform="translate(149,157)"/>
<path d="M0 0 C4.95 1.98 4.95 1.98 10 4 C9.01 4.495 9.01 4.495 8 5 C7.67 5.66 7.34 6.32 7 7 C4.36 5.35 1.72 3.7 -1 2 C-0.67 1.34 -0.34 0.68 0 0 Z " fill="#978312" transform="translate(127,244)"/>
<path d="M0 0 C0.99 0 1.98 0 3 0 C2.71715982 1.77226453 2.42339502 3.542788 2.125 5.3125 C1.96257812 6.29863281 1.80015625 7.28476563 1.6328125 8.30078125 C1 11 1 11 -1 14 C-1.0270043 12.54176788 -1.04639787 11.08339325 -1.0625 9.625 C-1.07410156 8.81289062 -1.08570313 8.00078125 -1.09765625 7.1640625 C-1 5 -1 5 0 3 C0 2.01 0 1.02 0 0 Z " fill="#9D9454" transform="translate(239,235)"/>
<path d="M0 0 C2 3 2 3 2 5 C1.34 5 0.68 5 0 5 C0.20625 5.78375 0.4125 6.5675 0.625 7.375 C0.810625 8.674375 0.810625 8.674375 1 10 C0.34 10.66 -0.32 11.32 -1 12 C-2.11658501 7.31034294 -1.80619523 4.46236469 0 0 Z " fill="#304903" transform="translate(277,94)"/>
<path d="M0 0 C0.33 0 0.66 0 1 0 C1 2.97 1 5.94 1 9 C0.34 9 -0.32 9 -1 9 C-1.33 10.65 -1.66 12.3 -2 14 C-3.25127906 10.45332822 -2.72285053 8.27746562 -1.5625 4.75 C-1.27503906 3.85796875 -0.98757813 2.9659375 -0.69140625 2.046875 C-0.46324219 1.37140625 -0.23507812 0.6959375 0 0 Z " fill="#426801" transform="translate(285,62)"/>
<path d="M0 0 C-2.21823634 2.21823634 -2.97704276 2.52964476 -6 3 C-7.92040756 2.91685386 -9.83873231 2.76727868 -11.75 2.5625 C-13.22726563 2.40974609 -13.22726563 2.40974609 -14.734375 2.25390625 C-15.48203125 2.17011719 -16.2296875 2.08632813 -17 2 C-17 1.67 -17 1.34 -17 1 C-11.29014022 0.25983299 -5.75813575 -0.10469338 0 0 Z " fill="#A4F315" transform="translate(259,61)"/>
<path d="M0 0 C-0.33 0.66 -0.66 1.32 -1 2 C-3.64860427 2.59355614 -6.29197322 2.74209269 -9 3 C-9.33 2.34 -9.66 1.68 -10 1 C-6.1496895 -1.56687367 -4.41430237 -0.83288724 0 0 Z " fill="#F9CA10" transform="translate(209,257)"/>
<path d="M0 0 C0.33 0 0.66 0 1 0 C1.027193 1.58323688 1.04648306 3.16661062 1.0625 4.75 C1.07410156 5.63171875 1.08570313 6.5134375 1.09765625 7.421875 C1.00826198 9.7818838 0.66912821 11.74498524 0 14 C-0.66 14 -1.32 14 -2 14 C-1.43393721 9.30976546 -0.81462495 4.65499974 0 0 Z " fill="#F1C710" transform="translate(250,178)"/>
<path d="M0 0 C1.25127906 3.54667178 0.72285053 5.72253438 -0.4375 9.25 C-0.72496094 10.14203125 -1.01242188 11.0340625 -1.30859375 11.953125 C-1.53675781 12.62859375 -1.76492187 13.3040625 -2 14 C-2.33 14 -2.66 14 -3 14 C-2.88570603 12.22844346 -2.75816963 10.45773771 -2.625 8.6875 C-2.55539063 7.70136719 -2.48578125 6.71523437 -2.4140625 5.69921875 C-2 3 -2 3 0 0 Z " fill="#5358B8" transform="translate(134,167)"/>
<path d="M0 0 C1.76462683 3.08809695 2 4.23312136 2 8 C1.34 8 0.68 8 0 8 C0 9.65 0 11.3 0 13 C-0.66 12.67 -1.32 12.34 -2 12 C-1.33333333 8 -0.66666667 4 0 0 Z " fill="#314903" transform="translate(272,110)"/>
<path d="M0 0 C0.66 0 1.32 0 2 0 C1.745504 1.48206495 1.47088238 2.96068615 1.1875 4.4375 C1.03667969 5.26121094 0.88585937 6.08492187 0.73046875 6.93359375 C0.48941406 7.61550781 0.24835938 8.29742187 0 9 C-0.99 9.33 -1.98 9.66 -3 10 C-2.69201674 8.51988629 -2.378482 7.04092675 -2.0625 5.5625 C-1.88847656 4.73878906 -1.71445313 3.91507813 -1.53515625 3.06640625 C-1 1 -1 1 0 0 Z " fill="#7C9C3E" transform="translate(179,45)"/>
<path d="M0 0 C-1.26418246 0.69965443 -2.53665402 1.38434763 -3.8125 2.0625 C-4.52019531 2.44535156 -5.22789063 2.82820312 -5.95703125 3.22265625 C-8 4 -8 4 -11 3 C-7.17860188 -0.1390056 -4.83859894 -1.61286631 0 0 Z " fill="#6E8BFC" transform="translate(21,229)"/>
<path d="M0 0 C0 0.99 0 1.98 0 3 C-2.31 3.33 -4.62 3.66 -7 4 C-6.67 3.34 -6.34 2.68 -6 2 C-6.66 1.34 -7.32 0.68 -8 0 C-4.94736336 -0.98120464 -3.05263664 -0.98120464 0 0 Z " fill="#4348BF" transform="translate(38,226)"/>
<path d="M0 0 C3.96 1.98 3.96 1.98 8 4 C6 5 6 5 2 5 C1.01 4.67 0.02 4.34 -1 4 C-0.67 2.68 -0.34 1.36 0 0 Z " fill="#957C05" transform="translate(159,155)"/>
<path d="M0 0 C-1.98 0.33 -3.96 0.66 -6 1 C-6 1.66 -6 2.32 -6 3 C-8.97 2.505 -8.97 2.505 -12 2 C-8.63758153 -1.36241847 -4.39594827 -1.5216744 0 0 Z " fill="#486A04" transform="translate(244,153)"/>
<path d="M0 0 C0.33 0.66 0.66 1.32 1 2 C2.64363134 2.72159424 4.31050386 3.39351421 6 4 C6 4.99 6 5.98 6 7 C1.545 5.02 1.545 5.02 -3 3 C-3 2.34 -3 1.68 -3 1 C-2.01 0.67 -1.02 0.34 0 0 Z " fill="#649301" transform="translate(175,144)"/>
<path d="M0 0 C-0.99 0.495 -0.99 0.495 -2 1 C-2 1.99 -2 2.98 -2 4 C-2.99 4 -3.98 4 -5 4 C-6.6875 2 -6.6875 2 -8 0 C-5.13822943 -1.43088528 -3.06624227 -0.59991697 0 0 Z " fill="#8FE304" transform="translate(270,60)"/>
<path d="M0 0 C0.33 0 0.66 0 1 0 C1.28571429 8.57142857 1.28571429 8.57142857 -1 12 C-2.42857143 3.42857143 -2.42857143 3.42857143 0 0 Z " fill="#8D3929" transform="translate(170,35)"/>
<path d="M0 0 C2.97 0.495 2.97 0.495 6 1 C6 1.66 6 2.32 6 3 C4.02 3.66 2.04 4.32 0 5 C-0.33 4.01 -0.66 3.02 -1 2 C-0.67 1.34 -0.34 0.68 0 0 Z " fill="#212DCC" transform="translate(130,140)"/>
<path d="M0 0 C0.99 0 1.98 0 3 0 C3 0.66 3 1.32 3 2 C4.65 2.33 6.3 2.66 8 3 C7.67 3.66 7.34 4.32 7 5 C4.69 4.67 2.38 4.34 0 4 C0 2.68 0 1.36 0 0 Z " fill="#5371EB" transform="translate(108,129)"/>
<path d="M0 0 C7.09821429 0.66964286 7.09821429 0.66964286 10 4 C8.51882199 3.71872579 7.04006751 3.42466268 5.5625 3.125 C4.73878906 2.96257812 3.91507812 2.80015625 3.06640625 2.6328125 C2.38449219 2.42398438 1.70257813 2.21515625 1 2 C0.67 1.34 0.34 0.68 0 0 Z " fill="#1A22A2" transform="translate(93,230)"/>
<path d="M0 0 C0.33 0.66 0.66 1.32 1 2 C-1.70879335 3.35439668 -4.00933268 3.06501451 -7 3 C-7.33 2.34 -7.66 1.68 -8 1 C-5.07175348 0.02391783 -3.04386724 -0.08226668 0 0 Z " fill="#1116A9" transform="translate(32,227)"/>
<path d="M0 0 C6.52307692 1.47692308 6.52307692 1.47692308 8.9375 4.125 C9.288125 4.74375 9.63875 5.3625 10 6 C9.01 6.495 9.01 6.495 8 7 C8 6.34 8 5.68 8 5 C7.4225 4.9175 6.845 4.835 6.25 4.75 C3.3840696 3.79468987 2.0009236 2.21530827 0 0 Z " fill="#B89D20" transform="translate(168,160)"/>
<path d="M0 0 C0.99 0.33 1.98 0.66 3 1 C1.625 3 1.625 3 0 5 C-0.66 5 -1.32 5 -2 5 C-2 3.68 -2 2.36 -2 1 C-1.34 0.67 -0.68 0.34 0 0 Z M-4 5 C-3.34 5.33 -2.68 5.66 -2 6 C-2.99 6 -3.98 6 -5 6 C-4.67 5.67 -4.34 5.34 -4 5 Z " fill="#4E75FB" transform="translate(45,136)"/>
<path d="M0 0 C0 0.66 0 1.32 0 2 C-4.17737474 3.59138085 -7.53160785 4.21278058 -12 4 C-8.74358283 0.74358283 -4.52301031 0 0 0 Z " fill="#7A97FB" transform="translate(64,131)"/>
<path d="M0 0 C2.97 0.33 5.94 0.66 9 1 C8.67 1.99 8.34 2.98 8 4 C5.03 3.505 5.03 3.505 2 3 C2 2.34 2 1.68 2 1 C1.34 0.67 0.68 0.34 0 0 Z " fill="#DB510C" transform="translate(140,20)"/>
<path d="M0 0 C6.625 0.75 6.625 0.75 10 3 C8.375 3.6875 8.375 3.6875 6 4 C2.75 2.5625 2.75 2.5625 0 1 C0 0.67 0 0.34 0 0 Z " fill="#5E692B" transform="translate(136,254)"/>
<path d="M0 0 C1.0828125 0.37125 1.0828125 0.37125 2.1875 0.75 C2.1875 1.08 2.1875 1.41 2.1875 1.75 C0.5375 1.75 -1.1125 1.75 -2.8125 1.75 C-2.8125 2.41 -2.8125 3.07 -2.8125 3.75 C-4.4625 3.75 -6.1125 3.75 -7.8125 3.75 C-3.50480769 -0.31153846 -3.50480769 -0.31153846 0 0 Z " fill="#0F11A4" transform="translate(42.8125,224.25)"/>
<path d="M0 0 C4.21912747 0.4794463 6.79663178 1.16625119 10 4 C6.53058454 3.54177532 3.32604951 3.10868317 0 2 C0 1.34 0 0.68 0 0 Z " fill="#6F82DF" transform="translate(111,129)"/>
<path d="M0 0 C0.66 0.33 1.32 0.66 2 1 C1.34 3.64 0.68 6.28 0 9 C-0.66 9 -1.32 9 -2 9 C-1.125 2.25 -1.125 2.25 0 0 Z " fill="#E68D50" transform="translate(67,27)"/>
<path d="M0 0 C2.84423926 0.89818082 4.59666789 1.47391464 6.4375 3.875 C7 6 7 6 6.125 8.25 C5.75375 8.8275 5.3825 9.405 5 10 C5 8.35 5 6.7 5 5 C4.34 4.67 3.68 4.34 3 4 C1.96854629 2.69084721 0.96457834 1.35917857 0 0 Z " fill="#BE7A71" transform="translate(166,30)"/>
<path d="M0 0 C0.66 0 1.32 0 2 0 C1.25 6.625 1.25 6.625 -1 10 C-1.02689216 8.52093108 -1.04634621 7.04172517 -1.0625 5.5625 C-1.07410156 4.73878906 -1.08570313 3.91507813 -1.09765625 3.06640625 C-1 1 -1 1 0 0 Z " fill="#908748" transform="translate(243,224)"/>
<path d="M0 0 C2.875 -0.125 2.875 -0.125 6 0 C8 2 8 2 8 4 C2.25 2.25 2.25 2.25 0 0 Z " fill="#405BE1" transform="translate(90,224)"/>
<path d="M0 0 C2.475 0.495 2.475 0.495 5 1 C4.67 1.99 4.34 2.98 4 4 C4.66 4.33 5.32 4.66 6 5 C3.03 4.505 3.03 4.505 0 4 C0 2.68 0 1.36 0 0 Z " fill="#5A72EB" transform="translate(82,221)"/>
<path d="M0 0 C0.66 0 1.32 0 2 0 C2.125 3.375 2.125 3.375 2 7 C1.34 7.66 0.68 8.32 0 9 C-0.84454356 5.62182575 -1.10844919 3.32534757 0 0 Z " fill="#6B5C04" transform="translate(260,158)"/>
<path d="M0 0 C2.31 0.33 4.62 0.66 7 1 C6.67 1.99 6.34 2.98 6 4 C3.83125748 3.49396008 2.00032373 3.00016187 0 2 C0 1.34 0 0.68 0 0 Z " fill="#628910" transform="translate(164,143)"/>
<path d="M0 0 C4.95 0.99 4.95 0.99 10 2 C9.67 2.99 9.34 3.98 9 5 C4.545 3.02 4.545 3.02 0 1 C0 0.67 0 0.34 0 0 Z " fill="#6F9F15" transform="translate(202,56)"/>
</svg>
